<?xml version="1.0" encoding="UTF-8" standalone="no"?>
<svg
   version="1.1"
   width="600"
   height="690"
   viewBox="0 0 200 229.99998"
   style="overflow:hidden !important"
   id="svg1"
   sodipodi:docname="ich.svg"
   inkscape:version="1.4.2 (ebf0e940, 2025-05-08)"
   xmlns:inkscape="http://www.inkscape.org/namespaces/inkscape"
   xmlns:sodipodi="http://sodipodi.sourceforge.net/DTD/sodipodi-0.dtd"
   xmlns="http://www.w3.org/2000/svg"
   xmlns:svg="http://www.w3.org/2000/svg">
  <sodipodi:namedview
     id="namedview1"
     pagecolor="#ffffff"
     bordercolor="#000000"
     borderopacity="0.25"
     inkscape:showpageshadow="2"
     inkscape:pageopacity="0.0"
     inkscape:pagecheckerboard="0"
     inkscape:deskcolor="#d1d1d1"
     inkscape:zoom="0.24925943"
     inkscape:cx="118.35059"
     inkscape:cy="222.65958"
     inkscape:window-width="1240"
     inkscape:window-height="622"
     inkscape:window-x="0"
     inkscape:window-y="25"
     inkscape:window-maximized="0"
     inkscape:current-layer="svg1" />
  <defs
     id="SvgjsDefs1007">
    <radialGradient
       id="SvgjsRadialGradient2770"
       cx="100"
       cy="113"
       r="40"
       gradientUnits="userSpaceOnUse"
       class="svga-on-canvas-facehighlight-gradient-single-0">
      <stop
         id="SvgjsStop2771"
         stop-opacity="0.5"
         stop-color="#fff4f3"
         offset="0" />
      <stop
         id="SvgjsStop2772"
         stop-opacity="0"
         stop-color="#f3d4cf"
         offset="0.9" />
    </radialGradient>
    <radialGradient
       id="SvgjsRadialGradient2774"
       cx="100"
       cy="57"
       r="36"
       gradientUnits="userSpaceOnUse"
       class="svga-on-canvas-facehighlight-gradient-single-1">
      <stop
         id="SvgjsStop2775"
         stop-opacity="0.5"
         stop-color="#fff4f3"
         offset="0" />
      <stop
         id="SvgjsStop2776"
         stop-opacity="0"
         stop-color="#f3d4cf"
         offset="0.9" />
    </radialGradient>
    <linearGradient
       id="SvgjsLinearGradient2976"
       x1="100"
       y1="141"
       x2="100"
       y2="137"
       gradientUnits="userSpaceOnUse"
       class="svga-on-canvas-mouth-gradient-single-0">
      <stop
         id="SvgjsStop2977"
         stop-opacity="1"
         stop-color="#ebc3bd"
         offset="0.1" />
      <stop
         id="SvgjsStop2978"
         stop-opacity="1"
         stop-color="#e4b3ab"
         offset="1" />
    </linearGradient>
    <linearGradient
       id="SvgjsLinearGradient3037"
       x1="99.980003"
       y1="171.27"
       x2="99.980003"
       y2="136.351"
       gradientUnits="userSpaceOnUse"
       class="svga-on-canvas-chinshadow-gradient-single-0">
      <stop
         id="SvgjsStop3038"
         stop-opacity="0.8"
         stop-color="#e4b3ab"
         offset="0" />
      <stop
         id="SvgjsStop3039"
         stop-opacity="1"
         stop-color="#c5796d"
         offset="0.7" />
    </linearGradient>
    <radialGradient
       id="SvgjsRadialGradient3327"
       cx="129.05"
       cy="85.956001"
       r="15.117"
       gradientTransform="matrix(-0.9945,0.1042,0.1042,0.9945,192.8274,-12.4637)"
       gradientUnits="userSpaceOnUse"
       class="svga-on-canvas-eyesback-gradient-left-0">
      <stop
         id="SvgjsStop3328"
         stop-opacity="1"
         stop-color="#ffffff"
         offset="0" />
      <stop
         id="SvgjsStop3329"
         stop-opacity="1"
         stop-color="#fcfdfd"
         offset="0.316" />
      <stop
         id="SvgjsStop3330"
         stop-opacity="1"
         stop-color="#f4f7f8"
         offset="0.505" />
      <stop
         id="SvgjsStop3331"
         stop-opacity="1"
         stop-color="#e5ecef"
         offset="0.661" />
      <stop
         id="SvgjsStop3332"
         stop-opacity="1"
         stop-color="#d8e2e7"
         offset="0.76" />
    </radialGradient>
    <radialGradient
       id="SvgjsRadialGradient3334"
       cx="129.049"
       cy="85.956001"
       r="15.117"
       gradientTransform="matrix(0.9945,0.1042,-0.1042,0.9945,7.1735,-12.4637)"
       gradientUnits="userSpaceOnUse"
       class="svga-on-canvas-eyesback-gradient-right-0">
      <stop
         id="SvgjsStop3335"
         stop-opacity="1"
         stop-color="#ffffff"
         offset="0" />
      <stop
         id="SvgjsStop3336"
         stop-opacity="1"
         stop-color="#fcfdfd"
         offset="0.316" />
      <stop
         id="SvgjsStop3337"
         stop-opacity="1"
         stop-color="#f4f7f8"
         offset="0.505" />
      <stop
         id="SvgjsStop3338"
         stop-opacity="1"
         stop-color="#e5ecef"
         offset="0.661" />
      <stop
         id="SvgjsStop3339"
         stop-opacity="1"
         stop-color="#d8e2e7"
         offset="0.76" />
    </radialGradient>
    <radialGradient
       id="SvgjsRadialGradient3341"
       cx="129.05"
       cy="85.956001"
       r="15.117"
       gradientTransform="matrix(-0.9945,0.1042,0.1042,0.9945,192.8274,-12.4637)"
       gradientUnits="userSpaceOnUse"
       class="svga-on-canvas-eyesfront-gradient-left-0">
      <stop
         id="SvgjsStop3342"
         stop-opacity="1"
         stop-color="#ffffff"
         offset="0" />
      <stop
         id="SvgjsStop3343"
         stop-opacity="1"
         stop-color="#fcfdfd"
         offset="0.316" />
      <stop
         id="SvgjsStop3344"
         stop-opacity="1"
         stop-color="#f4f7f8"
         offset="0.505" />
      <stop
         id="SvgjsStop3345"
         stop-opacity="1"
         stop-color="#e5ecef"
         offset="0.661" />
      <stop
         id="SvgjsStop3346"
         stop-opacity="1"
         stop-color="#d8e2e7"
         offset="0.76" />
    </radialGradient>
    <radialGradient
       id="SvgjsRadialGradient3350"
       cx="121.786"
       cy="84.496002"
       fx="133.039"
       fy="84.527"
       r="16.003"
       gradientTransform="matrix(0.9998,0.0208,0.0166,-0.7998,-44.9524,149.5433)"
       gradientUnits="userSpaceOnUse"
       class="svga-on-canvas-eyesfront-gradient-left-3">
      <stop
         id="SvgjsStop3351"
         stop-opacity="1"
         stop-color="#e4b3ab"
         offset="0" />
      <stop
         id="SvgjsStop3352"
         stop-opacity="0.3"
         stop-color="#e4b3ab"
         offset="0.7" />
      <stop
         id="SvgjsStop3353"
         stop-opacity="0"
         stop-color="#f3d4cf"
         offset="1" />
    </radialGradient>
    <radialGradient
       id="SvgjsRadialGradient3355"
       cx="69.124001"
       cy="107.529"
       r="29.525"
       gradientTransform="matrix(1.0336,0,0,1.0336,-1.6792,1.7282)"
       gradientUnits="userSpaceOnUse"
       class="svga-on-canvas-eyesfront-gradient-left-4">
      <stop
         id="SvgjsStop3356"
         stop-opacity="0"
         stop-color="#000000"
         offset="0.95" />
      <stop
         id="SvgjsStop3357"
         stop-opacity="0.3"
         stop-color="#000000"
         offset="1" />
    </radialGradient>
    <radialGradient
       id="SvgjsRadialGradient3361"
       cx="129.049"
       cy="85.956001"
       r="15.117"
       gradientTransform="matrix(0.9945,0.1042,-0.1042,0.9945,7.1735,-12.4637)"
       gradientUnits="userSpaceOnUse"
       class="svga-on-canvas-eyesfront-gradient-right-0">
      <stop
         id="SvgjsStop3362"
         stop-opacity="1"
         stop-color="#ffffff"
         offset="0" />
      <stop
         id="SvgjsStop3363"
         stop-opacity="1"
         stop-color="#fcfdfd"
         offset="0.316" />
      <stop
         id="SvgjsStop3364"
         stop-opacity="1"
         stop-color="#f4f7f8"
         offset="0.505" />
      <stop
         id="SvgjsStop3365"
         stop-opacity="1"
         stop-color="#e5ecef"
         offset="0.661" />
      <stop
         id="SvgjsStop3366"
         stop-opacity="1"
         stop-color="#d8e2e7"
         offset="0.76" />
    </radialGradient>
    <radialGradient
       id="SvgjsRadialGradient3370"
       cx="121.786"
       cy="84.496002"
       fx="133.039"
       fy="84.527"
       r="16.003"
       gradientTransform="matrix(-0.9998,0.0208,-0.0166,-0.7998,244.9525,149.5433)"
       gradientUnits="userSpaceOnUse"
       class="svga-on-canvas-eyesfront-gradient-right-3">
      <stop
         id="SvgjsStop3371"
         stop-opacity="1"
         stop-color="#e4b3ab"
         offset="0" />
      <stop
         id="SvgjsStop3372"
         stop-opacity="0.3"
         stop-color="#e4b3ab"
         offset="0.7" />
      <stop
         id="SvgjsStop3373"
         stop-opacity="0"
         stop-color="#f3d4cf"
         offset="1" />
    </radialGradient>
    <radialGradient
       id="SvgjsRadialGradient3375"
       cx="69.124001"
       cy="107.529"
       r="29.525"
       gradientTransform="matrix(-1.0336,0,0,1.0336,201.6792,1.7282)"
       gradientUnits="userSpaceOnUse"
       class="svga-on-canvas-eyesfront-gradient-right-4">
      <stop
         id="SvgjsStop3376"
         stop-opacity="0"
         stop-color="#000000"
         offset="0.95" />
      <stop
         id="SvgjsStop3377"
         stop-opacity="0.3"
         stop-color="#000000"
         offset="1" />
    </radialGradient>
    <radialGradient
       id="SvgjsRadialGradient3494"
       cx="-558.58801"
       cy="-490.918"
       r="84.646004"
       gradientTransform="matrix(0.096,-0.0248,0.0245,0.0961,140.5478,120.3577)"
       gradientUnits="userSpaceOnUse"
       class="svga-on-canvas-eyesiris-gradient-left-1">
      <stop
         id="SvgjsStop3495"
         stop-opacity="0.8"
         stop-color="#ffffff"
         offset="0" />
      <stop
         id="SvgjsStop3496"
         stop-opacity="0"
         stop-color="#ffffff"
         offset="1" />
    </radialGradient>
    <radialGradient
       id="SvgjsRadialGradient3498"
       cx="-565.33698"
       cy="-492.69101"
       r="84.643997"
       gradientTransform="matrix(0.0991,8.856325e-4,-0.0011,0.0991,130.3774,136.3533)"
       gradientUnits="userSpaceOnUse"
       class="svga-on-canvas-eyesiris-gradient-left-2">
      <stop
         id="SvgjsStop3499"
         stop-opacity="0.8"
         stop-color="#ffffff"
         offset="0" />
      <stop
         id="SvgjsStop3500"
         stop-opacity="0"
         stop-color="#ffffff"
         offset="1" />
    </radialGradient>
    <linearGradient
       id="SvgjsLinearGradient3504"
       x1="122.283"
       y1="93.046997"
       x2="123.61"
       y2="91.466003"
       gradientTransform="translate(-52)"
       gradientUnits="userSpaceOnUse"
       class="svga-on-canvas-eyesiris-gradient-left-5">
      <stop
         id="SvgjsStop3505"
         stop-opacity="1"
         stop-color="#ffffff"
         offset="0" />
      <stop
         id="SvgjsStop3506"
         stop-opacity="0"
         stop-color="#ffffff"
         offset="1" />
    </linearGradient>
    <linearGradient
       id="SvgjsLinearGradient3508"
       x1="127"
       y1="85"
       x2="125"
       y2="87"
       gradientTransform="translate(-50)"
       gradientUnits="userSpaceOnUse"
       class="svga-on-canvas-eyesiris-gradient-left-6">
      <stop
         id="SvgjsStop3509"
         stop-opacity="1"
         stop-color="#ffffff"
         offset="0" />
      <stop
         id="SvgjsStop3510"
         stop-opacity="0"
         stop-color="#ffffff"
         offset="1" />
    </linearGradient>
    <linearGradient
       id="SvgjsLinearGradient3512"
       x1="130"
       y1="81"
       x2="126"
       y2="85"
       gradientTransform="translate(-50)"
       gradientUnits="userSpaceOnUse"
       class="svga-on-canvas-eyesiris-gradient-left-7">
      <stop
         id="SvgjsStop3513"
         stop-opacity="1"
         stop-color="#ffffff"
         offset="0" />
      <stop
         id="SvgjsStop3514"
         stop-opacity="0"
         stop-color="#ffffff"
         offset="1" />
    </linearGradient>
    <radialGradient
       id="SvgjsRadialGradient3517"
       cx="-578.76001"
       cy="-490.73001"
       r="84.646004"
       gradientTransform="matrix(0.096,-0.0248,0.0245,0.0961,192.4794,119.8404)"
       gradientUnits="userSpaceOnUse"
       class="svga-on-canvas-eyesiris-gradient-right-1">
      <stop
         id="SvgjsStop3518"
         stop-opacity="0.8"
         stop-color="#ffffff"
         offset="0" />
      <stop
         id="SvgjsStop3519"
         stop-opacity="0"
         stop-color="#ffffff"
         offset="1" />
    </radialGradient>
    <radialGradient
       id="SvgjsRadialGradient3521"
       cx="-584.77802"
       cy="-487.32901"
       r="84.643997"
       gradientTransform="matrix(0.0991,8.856325e-4,-0.0011,0.0991,182.3104,135.839)"
       gradientUnits="userSpaceOnUse"
       class="svga-on-canvas-eyesiris-gradient-right-2">
      <stop
         id="SvgjsStop3522"
         stop-opacity="0.8"
         stop-color="#ffffff"
         offset="0" />
      <stop
         id="SvgjsStop3523"
         stop-opacity="0"
         stop-color="#ffffff"
         offset="1" />
    </radialGradient>
    <linearGradient
       id="SvgjsLinearGradient3527"
       x1="120.284"
       y1="93.046997"
       x2="121.611"
       y2="91.467003"
       gradientUnits="userSpaceOnUse"
       class="svga-on-canvas-eyesiris-gradient-right-5">
      <stop
         id="SvgjsStop3528"
         stop-opacity="1"
         stop-color="#ffffff"
         offset="0" />
      <stop
         id="SvgjsStop3529"
         stop-opacity="0"
         stop-color="#ffffff"
         offset="1" />
    </linearGradient>
    <linearGradient
       id="SvgjsLinearGradient3531"
       x1="127"
       y1="85"
       x2="125"
       y2="87"
       gradientUnits="userSpaceOnUse"
       class="svga-on-canvas-eyesiris-gradient-right-6">
      <stop
         id="SvgjsStop3532"
         stop-opacity="1"
         stop-color="#ffffff"
         offset="0" />
      <stop
         id="SvgjsStop3533"
         stop-opacity="0"
         stop-color="#ffffff"
         offset="1" />
    </linearGradient>
    <linearGradient
       id="SvgjsLinearGradient3535"
       x1="130"
       y1="81"
       x2="126"
       y2="85"
       gradientUnits="userSpaceOnUse"
       class="svga-on-canvas-eyesiris-gradient-right-7">
      <stop
         id="SvgjsStop3536"
         stop-opacity="1"
         stop-color="#ffffff"
         offset="0" />
      <stop
         id="SvgjsStop3537"
         stop-opacity="0"
         stop-color="#ffffff"
         offset="1" />
    </linearGradient>
  </defs>
  <g
     id="svga-group-wrapper"
     transform="translate(1.3372948,13.372948)">
    <g
       id="svga-group-backs-single" />
    <g
       id="svga-group-humanwrap-move">
      <g
         id="svga-group-humanwrap">
        <g
           id="svga-group-hair-back-move">
          <g
             id="svga-group-hair-back">
            <path
               id="SvgjsPath2934"
               d="m 100.5,100.5 h -1 v -1 h 1 z"
               fill="#edbe44"
               stroke-width="none"
               opacity="1"
               stroke="none" />
          </g>
        </g>
        <g
           id="svga-group-humanbody-single">
          <path
             id="SvgjsPath2777"
             d="m 190.858,199.866 c -6.008,-10.158 -13.474,-11.973 -19.628,-13.936 -6.323,-2.016 -19.346,-3.178 -26.449,-4.6 -6.86,-1.373 -23.153,-5.789 -23.339,-13.488 -0.192,-8.066 4.291,-40.09 4.291,-40.09 H 74.005 c 0,0 4.487,32.023 4.294,40.09 -0.184,7.699 -16.48,12.115 -23.341,13.488 -7.104,1.422 -20.125,2.584 -26.448,4.6 -6.156,1.963 -13.624,3.777 -19.632,13.936 -3.644,6.16 -6.008,16.133 -6.008,27.133 h 194 c -0.001,-11 -2.361,-20.973 -6.012,-27.133 z"
             fill="#f3d4cf"
             stroke-width="none"
             opacity="1"
             stroke="none" />
          <path
             id="SvgjsPath2778"
             d="m 121.442,167.843 c 2.495,10.929 18.165,13.698 26.293,15.325 21.909,4.379 33.772,5.134 42.297,19.539 2.903,4.916 5.459,15.864 5.962,24.153 1.835,0.291 0.531,-17.432 -5.136,-26.994 -9.742,-16.472 -29.089,-15.135 -46.077,-18.535 -6.86,-1.373 -23.153,-5.789 -23.339,-13.488 z m -42.884,0 c -0.186,7.699 -16.479,12.115 -23.339,13.488 -16.988,3.4 -36.335,2.063 -46.077,18.535 -5.667,9.563 -6.971,27.285 -5.136,26.994 0.503,-8.289 3.059,-19.237 5.962,-24.153 8.524,-14.405 20.388,-15.16 42.297,-19.539 8.128,-1.627 23.798,-4.397 26.293,-15.325 z"
             fill="#fff4f3"
             stroke-width="none"
             opacity="1"
             stroke="none" />
          <path
             id="SvgjsPath2779"
             d="m 51.206,189.513 c 0,0 28.641,0.299 33.473,1.885 2.314,0.758 8.372,5.633 8.372,5.633 0,0 -6.556,-3.17 -8.658,-3.758 -4.883,-1.364 -33.187,-3.76 -33.187,-3.76 z m 48.589,10.486 c 2.053,-0.041 7.887,-3.799 7.887,-3.799 0,0 -5.574,2.059 -7.342,2.16 -1.491,0.086 -6.366,-1.238 -6.366,-1.238 0,0 4.138,2.91 5.821,2.877 z m 17.213,-7.242 c 6.75,-1.818 29.786,-3.23 29.786,-3.23 0,0 -23.791,-0.516 -30.51,1.725 -2.252,0.752 -7.562,5.16 -7.562,5.16 0,0 6.064,-3.058 8.286,-3.655 z"
             fill="#e4b3ab"
             stroke-width="none"
             opacity="1"
             stroke="none" />
          <path
             id="SvgjsPath2780"
             d="m 190.858,199.866 c -9.741,-16.471 -29.122,-15.142 -46.077,-18.535 -6.86,-1.373 -23.153,-5.789 -23.339,-13.488 -0.192,-8.066 4.291,-40.09 4.291,-40.09 H 74.005 c 0,0 4.487,32.023 4.294,40.09 -0.184,7.699 -16.48,12.115 -23.341,13.488 -7.104,1.422 -20.125,2.584 -26.448,4.6 -6.156,1.963 -13.624,3.777 -19.632,13.936 C 5.234,206.027 2.87,216 2.87,227 h 194 c -0.001,-11.001 -2.361,-20.974 -6.012,-27.134 z"
             fill="none"
             stroke="#c5796d"
             stroke-width="1.5"
             opacity="1" />
        </g>
        <g
           id="svga-group-chinshadow-single">
          <path
             id="SvgjsPath3036"
             d="m 100.021,171.27 c 5.607,-0.009 13.53,-3.627 20.967,-8.478 0.485,-6.84 1.756,-17.341 2.758,-25.098 -13.972,-1.825 -33.828,-1.785 -47.741,0.101 0.995,7.702 2.249,18.065 2.739,24.877 7.534,4.921 15.6,8.607 21.277,8.598 z"
             fill="url(#SvgjsLinearGradient3037)"
             opacity="1"
             style="fill:url(#SvgjsLinearGradient3037)" />
        </g>
        <g
           id="svga-group-clothes-single">
          <path
             id="SvgjsPath3539"
             d="m 176.662,239.205 c -4.731,-0.031 -142.126,-1.232 -153.208,-1.823 1.595,-10.032 4.924,-15.048 10.136,-20.336 0.397,-10.141 -3,-24.685 -4.583,-31.951 1.592,-4.057 4.741,0.357 20.731,-4.584 4.066,-1.013 8.65,-7.315 14.947,-2.354 -2.199,0.903 -4.148,1.319 -5.923,1.756 -2.657,14.611 31.716,40.78 40.839,45.67 11.181,-5.065 44.953,-33.159 41.373,-45.645 -0.346,-0.158 -4.268,-1.11 -5.551,-1.71 2.176,-1.919 5.892,-2.672 9.589,-0.353 4.431,2.771 12.578,5.406 22.848,5.406 1.323,0 2.337,0.34 2.986,1.999 -1.114,5.095 -4.727,22.604 -4.667,31.635 7.827,7.792 8.942,12.749 10.483,22.29 z"
             fill="#653220"
             stroke-width="none"
             opacity="1"
             stroke="none" />
          <path
             id="SvgjsPath3540"
             d="m 150.077,185.14 c -3.109,8.592 -5.631,11.417 -7.907,14.465 -2.618,3.506 -3.455,5.129 -2.205,2.785 4.648,-9.322 5.89,-8.879 10.112,-17.25 z m -2.569,28.381 c -0.232,1.071 -0.375,1.72 -0.344,1.593 2.81,-9.574 9.184,-26.459 9.184,-26.459 -2.17,7.14 -5.107,7.495 -8.84,24.866 z M 55.885,200 c 14.044,17.188 -2.303,-2.73 -7.432,-12.774 2.148,4.951 3.736,7.912 7.432,12.774 z m -1.578,16.992 c -0.395,-1 -6.421,-22.676 -11.549,-26.604 2.393,1.956 11.921,27.604 11.549,26.604 z"
             fill="#562413"
             stroke-width="none"
             opacity="1"
             stroke="none" />
          <path
             id="SvgjsPath3541"
             d="m 170.847,185.281 c -0.14,0.637 -0.436,1.843 -0.642,2.827 -2.355,-0.396 -5.961,-1.215 -5.961,-0.373 -0.866,9.101 -1.283,8.2 -2.025,16.167 0.073,-10.926 2.019,-11.629 -0.219,-16.902 -6.053,-1.017 -11.768,-2.581 -17.019,-4.186 -2.151,8.861 -12.232,20.261 -8.525,15.445 3.343,-4.392 6.313,-10.895 7.528,-15.751 -0.939,-0.29 -1.867,-0.581 -2.774,-0.869 -0.021,-0.591 -0.082,-1.165 -0.235,-1.701 -0.346,-0.158 -4.268,-1.11 -5.551,-1.71 2.176,-1.919 5.892,-2.672 9.589,-0.353 4.431,2.771 12.578,5.406 22.848,5.406 1.323,0.001 2.336,0.341 2.986,2 z m -141.694,0 c 0.14,0.637 0.436,1.843 0.642,2.827 2.355,-0.396 5.895,-0.783 5.895,-0.783 -0.26,5.06 1.35,7.61 2.092,15.577 C 37.708,191.977 36.014,192.189 37,187 c 6.053,-1.017 12.768,-2.581 18.019,-4.186 2.151,8.861 13.232,22.001 9.525,17.186 -3.343,-4.392 -7.313,-12.635 -8.528,-17.491 0.939,-0.29 1.867,-0.581 2.774,-0.869 0.021,-0.591 0.082,-1.165 0.235,-1.701 0.346,-0.158 4.268,-1.11 5.551,-1.71 -2.176,-1.919 -5.892,-2.672 -9.589,-0.353 -4.431,2.771 -12.578,5.406 -22.848,5.406 -1.323,0 -2.336,0.34 -2.986,1.999 z"
             fill="#744230"
             stroke-width="none"
             opacity="1"
             stroke="none" />
          <path
             id="SvgjsPath3542"
             d="m 58.769,179.936 c 0,-0.801 0.47,-1.651 1.339,-1.651 0.476,0 1.025,0.247 1.633,0.733 l 0.146,0.117 -0.178,0.057 c -0.73,0.23 -1.982,0.597 -2.722,0.813 l -0.128,0.038 z m 82.1,0.059 c -0.016,0 -0.016,0 -1.14,-0.35 l -1.301,-0.402 0.162,-0.119 c 0.529,-0.385 0.955,-0.572 1.3,-0.572 0.533,0 0.885,0.433 1.076,1.323 l 0.026,0.12 z"
             fill="#461808"
             stroke-width="none"
             opacity="1"
             stroke="none" />
          <path
             id="SvgjsPath3543"
             d="m 166.279,216.915 c -0.055,-8.281 2.988,-23.902 4.66,-31.67 -1.18,-3.017 -3.58,-1.753 -6.03,-2.02 -15.956,-1.477 -19.064,-5.281 -21.12,-6.16 -2.655,-1.258 -6.253,-0.91 -8.479,1.13 -0.021,0.01 -0.04,0.03 -0.061,0.06 1.22,0.625 4.63,1.429 5.63,1.711 3.549,12.378 -29.553,40.193 -41.23,45.529 -9.231,-4.947 -43.363,-30.894 -40.8,-45.5 0.113,-0.027 2.995,-0.729 3.1,-0.779 0.039,0 2.487,-0.819 2.92,-1.03 -0.02,-0.01 -0.04,-0.03 -0.05,-0.05 -6.392,-5.112 -11.061,1.27 -15.11,2.279 -16.079,4.97 -19.171,0.454 -20.8,4.7 0.213,1 5.017,20.344 4.61,31.86 -5.072,5.146 -8.551,10.14 -10.16,20.399 -0.01,0.04 -0.02,0.07 -0.02,0.101 10.231,0.588 152.439,1.83 153.44,1.83 -1.575,-9.768 -2.746,-14.711 -10.5,-22.39 z m -27.63,-37.71 c 1.198,-0.872 1.907,-0.766 2.22,0.69 -0.001,10e-4 -2.219,-0.69 -2.22,-0.69 z m -79.78,0.731 c 0,-1 0.825,-2.429 2.81,-0.84 -0.76,0.24 -2.086,0.628 -2.81,0.84 z m -34.97,57.429 c 3.735,-15.164 12.067,-23.607 14.47,-23.68 -1.422,0 -3.53,1.973 -4.53,2.96 0.941,-11.17 -2.007,-22.558 -4.63,-31.54 1.216,-2.388 3.067,-1.38 5.53,-1.38 22.481,0 21.745,-12.367 29.94,-5.54 -0.409,0.163 -2.524,0.757 -2.9,0.88 -3.441,-3.277 -3.946,2.577 -2.91,7.54 5.004,16.15 35.575,39.59 40.71,39.59 15.945,-6.354 44.861,-31.908 41.59,-46.16 0.01,-0.02 0,-0.04 -0.01,-0.06 -0.188,-1.347 -1.059,-2.112 -2.62,-0.811 -0.904,-0.285 -1.897,-0.549 -3.09,-0.92 5.239,-4.381 10.854,1.216 12.77,2.19 4.607,2.536 12.876,3.43 16.681,3.43 2.626,0.086 4.562,-1.097 5.739,1.351 -2.909,9.728 -5.29,21.217 -4.67,31.39 -1.057,-1.004 -2.635,-2.41 -4.05,-2.76 6.852,2.486 13.144,17.17 14.4,25.26 -67.535,-2.377 -75.794,-2.1 -152.42,-1.74 z"
             fill="#370f01"
             stroke-width="none"
             opacity="1"
             stroke="none" />
        </g>
        <g
           id="svga-group-head">
          <g
             id="svga-group-ears-left-move"
             style="display:none">
            <g
               id="svga-group-ears-left">
              <path
                 id="SvgjsPath2790"
                 d="m 47.001,83.974 c -1.376,-2.313 -5.638,-7.997 -9.98,-6.603 -2.749,0.882 -3.293,3.765 -3.735,6.311 -0.588,3.386 0.471,10.083 1.389,12.503 0.881,2.325 3.533,6.816 5.264,8.527 2.13,2.1 4.775,8.793 5.194,9.487 0.66,1.097 1.536,2.745 4.122,2.538 2.853,-0.229 4.584,-1.742 5.856,-1.999 3.142,-0.629 -4.529,-24.743 -8.11,-30.764 z"
                 fill="#f3d4cf"
                 stroke="#c5796d"
                 stroke-width="1.5"
                 opacity="1" />
              <path
                 id="SvgjsPath2791"
                 d="m 44.197,97.997 c -0.132,-0.548 0.007,-1.47 0.142,-2.362 0.124,-0.812 0.24,-1.579 0.169,-2.121 -0.267,-2.032 -1.773,-5.893 -2.757,-7.985 -1.132,-2.407 -2.963,-5.439 -5.262,-6.221 -0.95,-0.324 -1.575,0.063 -1.938,0.456 -0.266,0.289 -0.325,0.627 -0.238,0.667 0.086,0.04 0.285,-0.24 0.572,-0.504 0.235,-0.216 0.579,-0.402 1.051,-0.363 -0.19,1.011 -1.167,6.49 -0.744,10.225 0.333,2.938 1.593,5.131 1.79,5.46 0.029,0.346 0.077,0.685 0.148,1.014 0.929,4.287 4.971,9.163 6.378,10.758 0.259,0.295 0.531,0.47 0.598,0.398 0.066,-0.072 -0.094,-0.364 -0.353,-0.66 -1.388,-1.585 -5.391,-6.442 -6.289,-10.579 -0.952,-4.389 2.318,-10.896 3.048,-12.272 0.371,0.646 0.687,1.267 0.93,1.785 0.19,0.406 0.402,0.881 0.619,1.395 -0.429,0.718 -3.434,5.958 -2.338,10.153 0.406,1.546 2.235,3.54 3.447,4.086 0.667,0.301 0.919,0.75 1.209,1.271 0.336,0.604 0.718,1.288 1.828,1.784 0.225,0.102 0.429,0.142 0.61,0.142 0.313,0 0.551,-0.126 0.725,-0.276 0.018,0.266 0.017,0.604 0.009,0.917 -0.012,0.404 0.042,0.737 0.137,0.745 0.094,0.008 0.196,-0.313 0.207,-0.717 0.016,-0.496 0.013,-1.11 -0.072,-1.403 -0.248,-0.865 -1.008,-1.841 -1.813,-2.875 -0.789,-1.019 -1.607,-2.071 -1.813,-2.918 z M 36.95,94.196 c -2.177,-6.731 0.656,-12.54 1.144,-13.464 0.85,0.775 1.6,1.811 2.21,2.824 -0.444,0.809 -3.263,6.113 -3.354,10.64 z m 9.391,9.846 c -1.004,-0.447 -1.339,-1.051 -1.666,-1.633 -0.293,-0.527 -0.598,-1.072 -1.369,-1.42 -0.168,-0.075 -0.352,-0.191 -0.542,-0.323 -2.486,-5.906 0.272,-8.488 0.963,-9.017 0.211,0.722 0.369,1.384 0.439,1.915 0.063,0.488 -0.052,1.263 -0.167,2.012 -0.142,0.929 -0.286,1.89 -0.137,2.512 0.226,0.926 1.069,2.009 1.884,3.057 0.723,0.929 1.466,1.888 1.721,2.67 -0.108,0.157 -0.45,0.53 -1.126,0.227 z"
                 fill="#c5796d"
                 stroke-width="none"
                 opacity="1"
                 stroke="none" />
            </g>
          </g>
          <g
             id="svga-group-ears-right-move"
             style="display:none">
            <g
               id="svga-group-ears-right">
              <path
                 id="SvgjsPath2792"
                 d="m 152.736,83.974 c 1.377,-2.313 5.639,-7.997 9.98,-6.603 2.75,0.882 3.293,3.765 3.736,6.311 0.588,3.386 -0.471,10.083 -1.389,12.503 -0.881,2.325 -3.533,6.816 -5.266,8.527 -2.129,2.1 -4.775,8.793 -5.193,9.487 -0.658,1.097 -1.535,2.745 -4.121,2.538 -2.854,-0.229 -4.584,-1.742 -5.857,-1.999 -3.142,-0.629 4.53,-24.743 8.11,-30.764 z"
                 fill="#f3d4cf"
                 stroke="#c5796d"
                 stroke-width="1.5"
                 opacity="1" />
              <path
                 id="SvgjsPath2793"
                 d="m 153.727,100.913 c -0.805,1.033 -1.564,2.009 -1.813,2.875 -0.086,0.293 -0.088,0.907 -0.072,1.403 0.012,0.404 0.113,0.725 0.207,0.717 0.094,-0.008 0.148,-0.341 0.137,-0.745 -0.008,-0.313 -0.008,-0.651 0.01,-0.917 0.174,0.15 0.412,0.276 0.725,0.276 0.182,0 0.385,-0.04 0.609,-0.142 1.109,-0.496 1.492,-1.18 1.828,-1.784 0.289,-0.52 0.543,-0.969 1.209,-1.271 1.213,-0.546 3.041,-2.54 3.447,-4.086 1.096,-4.194 -1.908,-9.435 -2.338,-10.153 0.217,-0.513 0.43,-0.988 0.619,-1.395 0.244,-0.518 0.559,-1.139 0.93,-1.785 0.73,1.377 4,7.883 3.049,12.272 -0.896,4.137 -4.9,8.994 -6.289,10.579 -0.258,0.296 -0.418,0.588 -0.352,0.66 0.066,0.071 0.338,-0.104 0.598,-0.398 1.406,-1.596 5.449,-6.471 6.379,-10.758 0.07,-0.329 0.117,-0.668 0.146,-1.014 0.197,-0.329 1.459,-2.523 1.791,-5.46 0.422,-3.735 -0.555,-9.214 -0.744,-10.225 0.473,-0.039 0.814,0.146 1.051,0.363 0.287,0.264 0.486,0.544 0.572,0.504 0.086,-0.04 0.027,-0.378 -0.238,-0.667 -0.363,-0.393 -0.988,-0.779 -1.938,-0.456 -2.299,0.782 -4.131,3.814 -5.262,6.221 -0.984,2.093 -2.49,5.953 -2.758,7.985 -0.072,0.542 0.045,1.309 0.17,2.121 0.135,0.892 0.273,1.814 0.141,2.362 -0.205,0.849 -1.023,1.901 -1.814,2.918 z m 5.707,-17.358 c 0.611,-1.013 1.361,-2.049 2.211,-2.824 0.488,0.925 3.32,6.733 1.145,13.464 -0.093,-4.526 -2.911,-9.83 -3.356,-10.64 z m -7.164,20.261 c 0.254,-0.782 0.998,-1.741 1.721,-2.67 0.816,-1.048 1.658,-2.131 1.885,-3.057 0.148,-0.622 0.004,-1.583 -0.137,-2.512 -0.115,-0.749 -0.23,-1.524 -0.166,-2.012 0.068,-0.531 0.227,-1.193 0.438,-1.915 0.691,0.529 3.449,3.111 0.965,9.017 -0.191,0.132 -0.375,0.248 -0.543,0.323 -0.771,0.348 -1.074,0.893 -1.369,1.42 -0.326,0.582 -0.662,1.186 -1.666,1.633 -0.677,0.302 -1.019,-0.071 -1.128,-0.227 z"
                 fill="#c5796d"
                 stroke-width="none"
                 opacity="1"
                 stroke="none" />
            </g>
          </g>
          <g
             id="svga-group-faceshape-wrap">
            <g
               id="svga-group-faceshape-single">
              <path
                 id="SvgjsPath3033"
                 d="m 158.785,76.762 h -0.005 c -0.012,0.053 -10.717,44.373 -18.919,56.95 -6.452,9.895 -28.166,25.54 -39.84,25.558 C 88.35,159.29 66.584,143.711 60.103,133.837 51.861,121.285 41.017,77 41.005,76.946 H 41.004 C 39.706,72.035 39.01,66.88 39.002,61.564 38.949,28.09 66.155,0.919 99.773,0.867 c 33.621,-0.052 60.913,27.033 60.964,60.507 0.009,5.316 -0.669,10.472 -1.952,15.388 z"
                 fill="#f3d4cf"
                 stroke-width="none"
                 opacity="1" />
              <path
                 id="SvgjsPath3034"
                 d="m 125.766,6.622 c 19.104,10.248 32.075,30.355 32.039,53.476 -0.009,5.316 -0.704,10.471 -2.003,15.382 h -0.001 c -0.012,0.053 -10.856,44.339 -19.099,56.891 -5.946,9.061 -24.555,25.121 -36.833,25.121 -12.279,0 -30.886,-16.061 -36.833,-25.121 C 54.794,119.819 43.95,75.534 43.938,75.48 H 43.937 C 42.639,70.569 41.943,65.414 41.935,60.098 41.898,36.977 54.87,16.87 73.972,6.622 53.277,16.324 38.963,37.28 39.001,61.564 c 0.008,5.316 0.704,10.471 2.002,15.382 h 10e-4 c 0.012,0.053 10.856,44.339 19.098,56.891 4.416,6.728 15.922,16.095 26.5,21.382 -0.529,-0.226 -1.062,-0.466 -1.599,-0.717 5.408,2.875 10.664,4.763 14.713,4.768 0.049,0 0.103,-0.005 0.152,-0.005 0.049,0 0.103,0.005 0.152,0.005 4.049,-0.005 9.305,-1.893 14.714,-4.768 -0.538,0.253 -1.071,0.491 -1.601,0.718 10.577,-5.287 22.085,-14.655 26.501,-21.383 8.242,-12.552 19.087,-56.837 19.098,-56.891 h 0.002 c 1.298,-4.911 1.994,-10.066 2.002,-15.382 0.039,-24.284 -14.274,-45.24 -34.97,-54.942 z"
                 fill="#ebc3bd"
                 stroke-width="none"
                 opacity="1" />
              <path
                 id="SvgjsPath3035"
                 d="m 158.785,76.762 h -0.005 c -0.012,0.053 -10.717,44.373 -18.919,56.95 -6.452,9.895 -28.166,25.54 -39.84,25.558 C 88.35,159.29 66.584,143.711 60.103,133.837 51.861,121.285 41.017,77 41.005,76.946 H 41.004 C 39.706,72.035 39.01,66.88 39.002,61.564 38.949,28.09 66.155,0.919 99.773,0.867 c 33.621,-0.052 60.913,27.033 60.964,60.507 0.009,5.316 -0.669,10.472 -1.952,15.388 z"
                 fill="none"
                 stroke="#c5796d"
                 stroke-width="1.5"
                 opacity="1" />
            </g>
          </g>
          <g
             id="svga-group-mouth-single-move">
            <g
               id="svga-group-mouth-single">
              <path
                 id="SvgjsPath2975"
                 d="m 99.867,141.087 c -4.159,0 -7.258,-4.297 -7.258,-4.297 7.261,3.32 14.915,0 14.915,0 0,0 -4.008,4.297 -7.657,4.297 z"
                 fill="url(#SvgjsLinearGradient2976)"
                 opacity="1"
                 style="fill:url(#SvgjsLinearGradient2976)" />
              <path
                 id="SvgjsPath2979"
                 d="m 112.127,131.943 c 0,0.625 -7.773,3.456 -12.258,3.575 -4.18,0.112 -12.333,-2.682 -12.333,-3.575 0,-0.892 6.441,-1.558 12.729,-1.558 6.29,0.001 11.862,0.667 11.862,1.558 z"
                 fill="#ffffff"
                 stroke-width="none"
                 opacity="1" />
              <path
                 id="SvgjsPath2980"
                 d="m 95.441,127.853 c 0.99,-0.131 2.728,0.908 4.824,0.909 1.541,0.002 3.426,-1.067 4.612,-0.909 2.529,0.341 3.857,1.882 10.491,2.47 0,0 -3.22,1.083 -4.075,1.15 -2.72,0.216 -7.215,-0.169 -11.287,-0.181 -4.556,-0.02 -8.941,0.43 -11.697,0.301 -0.994,-0.051 -3.941,-1.137 -3.941,-1.137 5.533,-0.26 8.179,-2.221 11.073,-2.603 z m -11.072,2.965 c 0,0 4.514,3.538 6.253,4.76 2.007,1.411 5.029,3.623 9.474,3.557 3.563,-0.058 6.641,-1.816 8.477,-2.986 1.978,-1.259 6.796,-5.463 6.796,-5.463 -2.77,0.633 -2.77,0.633 -4.075,1.149 -2.741,1.084 -7.477,2.722 -11.173,2.722 -4.563,0 -8.936,-1.639 -11.811,-2.603 -1.995,-0.668 -3.941,-1.136 -3.941,-1.136 z"
                 fill="#fe856a"
                 stroke="#ef694c"
                 stroke-width="0.75"
                 opacity="1" />
              <path
                 id="SvgjsPath2981"
                 d="m 115.592,130.572 c -0.458,0.663 -2.14,0.715 -2.888,0.977 -1.098,0.383 -2.162,0.856 -3.259,1.245 -2.693,0.954 -5.51,1.792 -8.375,1.98 -5.336,0.351 -10.599,-1.808 -15.596,-3.41 -0.424,-0.136 -0.994,-0.175 -1.359,-0.449 -0.326,-0.244 -0.015,-0.768 0.336,-0.701 1.051,0.199 2.092,0.731 3.141,0.994 1.224,0.308 2.583,0.16 3.832,0.113 1.592,-0.059 3.184,-0.146 4.777,-0.207 2.927,-0.109 5.842,-0.053 8.768,0.059 2.621,0.101 5.366,0.402 7.915,-0.332 0.688,-0.199 1.379,-0.399 2.047,-0.656 0.248,-0.095 1.009,-0.115 0.661,0.387 -0.177,0.256 0.04,-0.057 0,0 z m -7.202,1.201 c -3.415,0.013 -6.822,-0.286 -10.24,-0.217 -1.874,0.038 -3.745,0.139 -5.617,0.219 -0.566,0.024 -1.625,-0.143 -2.11,0.204 -0.466,0.334 1.182,0.807 1.325,0.852 3.306,1.039 6.829,1.78 10.304,1.346 1.704,-0.214 3.382,-0.632 5.023,-1.13 0.64,-0.195 1.439,-0.341 1.987,-0.743 0.573,-0.421 -0.406,-0.531 -0.672,-0.531 -1.057,0.004 1.102,-0.002 0,0 z"
                 fill="#d03a18"
                 stroke-width="none"
                 opacity="1"
                 stroke="none" />
              <path
                 id="SvgjsPath2982"
                 d="m 99.901,138.136 c -4.165,0 -7.465,-2.404 -10.634,-4.801 7.714,2.61 14.222,2.572 21.819,-0.346 -3.212,2.62 -6.871,5.106 -11.185,5.147 z m -6.3,-7.658 c 5.567,-0.262 11.102,0.228 16.657,0.047 -1.847,-0.453 -3.623,-1.426 -5.512,-1.681 -1.452,-0.142 -2.984,0.918 -4.481,0.918 -1.633,-0.001 -3.113,-0.918 -4.692,-0.918 -2.024,0.27 -3.923,1.229 -5.881,1.771 1.304,-0.022 2.607,-0.068 3.909,-0.137 1.868,-0.088 -1.421,0.065 0,0 z"
                 fill="#ff9a84"
                 stroke-width="none"
                 opacity="1"
                 stroke="none" />
              <path
                 id="SvgjsPath2983"
                 d="m 95.134,136.031 c 1.596,0.319 3.265,0.525 4.987,0.525 1.453,0 3.029,-0.222 4.598,-0.563 -1.384,0.624 -2.973,1.132 -4.654,1.141 -1.782,0.011 -3.594,-0.464 -4.931,-1.103 z"
                 fill="#ffaf9d"
                 stroke-width="none"
                 opacity="1"
                 stroke="none" />
            </g>
          </g>
          <g
             id="svga-group-eyes-left-move">
            <g
               id="svga-group-eyes-left">
              <g
                 id="svga-group-eyesback-left">
                <path
                   id="SvgjsPath3326"
                   d="m 61.952,84.523 c -0.506,-2.285 5.191,-3.973 12.711,-3.051 7.518,0.923 12.738,5.524 12.052,7.844 -0.38,1.286 -10.639,3.245 -14.253,2.847 -3.664,-0.405 -9.288,-2.123 -10.51,-7.64 z"
                   fill="url(#SvgjsRadialGradient3327)"
                   opacity="1"
                   style="fill:url(#SvgjsRadialGradient3327)" />
              </g>
              <g
                 id="svga-group-eyesiriswrapper-left"
                 transform="translate(-0.75,-0.5)">
                <g
                   id="svga-group-eyesiriscontrol-left">
                  <g
                     id="svga-group-eyesiris-left"
                     transform="matrix(0.9499999,0,0,0.9499999,3.7500075,4.3499587)">
                    <path
                       id="SvgjsPath3492"
                       d="m 83.5,87 c 0,4.694 -3.806,8.5 -8.499,8.5 C 70.307,95.5 66.5,91.694 66.5,87 v 0 c 0,-4.694 3.807,-8.5 8.501,-8.5 4.693,-0.001 8.499,3.805 8.499,8.5 z"
                       fill="#4e60a3"
                       stroke-width="none"
                       opacity="1" />
                    <path
                       id="SvgjsPath3493"
                       d="m 74.048,78.595 c -0.033,0.004 -0.066,0.008 -0.101,0.012 0.041,0.191 0.081,0.384 0.12,0.575 -0.007,-0.195 -0.012,-0.393 -0.019,-0.587 z m 0.018,0.585 c 0.099,2.793 0.262,5.282 0.732,6.183 0.249,-0.986 -0.173,-3.443 -0.732,-6.183 z m 0.734,6.185 c -0.061,0.236 -0.153,0.397 -0.294,0.452 -0.142,0.053 -0.319,-0.008 -0.521,-0.146 0.058,0.236 0.052,0.422 -0.051,0.537 -0.102,0.114 -0.285,0.142 -0.527,0.11 0.16,0.184 0.242,0.353 0.206,0.5 -0.039,0.148 -0.189,0.258 -0.415,0.343 0.225,0.088 0.376,0.199 0.411,0.347 0.036,0.148 -0.046,0.315 -0.205,0.498 0.241,-0.029 0.426,0.001 0.525,0.115 0.101,0.114 0.106,0.301 0.05,0.537 0.199,-0.137 0.376,-0.197 0.518,-0.142 0.143,0.053 0.234,0.216 0.291,0.454 0.114,-0.215 0.243,-0.353 0.396,-0.368 0.148,-0.02 0.307,0.084 0.466,0.267 0.002,-0.244 0.053,-0.423 0.181,-0.51 0.124,-0.086 0.311,-0.069 0.537,0.018 -0.11,-0.216 -0.148,-0.398 -0.078,-0.534 0.071,-0.135 0.245,-0.207 0.487,-0.235 -0.199,-0.14 -0.321,-0.283 -0.318,-0.436 -0.001,-0.153 0.119,-0.296 0.321,-0.434 -0.241,-0.03 -0.412,-0.103 -0.484,-0.237 -0.07,-0.135 -0.031,-0.319 0.081,-0.535 -0.229,0.085 -0.413,0.102 -0.538,0.016 -0.126,-0.086 -0.177,-0.267 -0.178,-0.51 -0.158,0.182 -0.316,0.282 -0.468,0.262 -0.152,-0.02 -0.282,-0.154 -0.393,-0.369 z m 0.86,0.106 c 0.679,-0.758 1.446,-3.13 2.224,-5.813 -1.21,2.516 -2.222,4.795 -2.224,5.813 z m 2.223,-5.814 c 0.085,-0.172 0.172,-0.348 0.253,-0.524 -0.03,-0.011 -0.06,-0.024 -0.09,-0.037 -0.054,0.188 -0.108,0.376 -0.163,0.561 z m -1.506,6.308 c 0.953,-0.357 2.736,-2.101 4.671,-4.115 -2.24,1.667 -4.197,3.215 -4.671,4.115 z m 4.671,-4.114 c 0.142,-0.106 0.287,-0.213 0.433,-0.318 -0.021,-0.025 -0.043,-0.047 -0.06,-0.07 -0.124,0.127 -0.247,0.259 -0.373,0.388 z m -4.271,4.887 c 1.01,0.125 3.399,-0.591 6.052,-1.475 -2.761,0.435 -5.212,0.896 -6.052,1.475 z m 6.052,-1.475 c 0.156,-0.022 0.318,-0.048 0.478,-0.073 -0.007,-0.026 -0.013,-0.054 -0.02,-0.081 -0.152,0.051 -0.308,0.103 -0.458,0.154 z m -6.054,2.343 c 0.836,0.583 3.284,1.057 6.038,1.505 -2.642,-0.897 -5.027,-1.627 -6.038,-1.505 z m 6.038,1.505 c 0.135,0.047 0.271,0.095 0.404,0.138 0.007,-0.024 0.013,-0.047 0.018,-0.071 -0.137,-0.02 -0.281,-0.043 -0.422,-0.067 z m -6.446,-0.736 c 0.471,0.902 2.42,2.462 4.649,4.142 -1.924,-2.025 -3.696,-3.78 -4.649,-4.142 z m 4.651,4.139 c 0.083,0.087 0.17,0.179 0.253,0.268 0.014,-0.017 0.027,-0.031 0.043,-0.046 -0.099,-0.074 -0.201,-0.149 -0.296,-0.222 z m -5.366,-3.647 c -0.004,1.019 0.995,3.302 2.191,5.827 -0.764,-2.688 -1.516,-5.066 -2.191,-5.827 z m 2.192,5.827 c 0.03,0.106 0.062,0.215 0.09,0.324 0.021,-0.008 0.036,-0.015 0.055,-0.02 -0.048,-0.102 -0.097,-0.205 -0.145,-0.304 z m -3.056,-5.726 c -0.476,0.902 -0.653,3.386 -0.768,6.178 0.574,-2.733 1.011,-5.188 0.768,-6.178 z m -0.767,6.178 c -0.023,0.106 -0.044,0.214 -0.066,0.323 0.02,0.004 0.035,0.005 0.055,0.007 0.003,-0.108 0.008,-0.222 0.011,-0.33 z m -0.042,-6.489 c -0.844,0.576 -2.154,2.697 -3.553,5.114 1.778,-2.154 3.307,-4.126 3.553,-5.114 z m -3.552,5.114 c -0.074,0.09 -0.152,0.185 -0.229,0.274 0.018,0.012 0.034,0.02 0.053,0.034 0.058,-0.103 0.118,-0.206 0.176,-0.308 z m 2.978,-5.765 c -1.015,0.119 -3.16,1.385 -5.522,2.875 2.577,-1.08 4.843,-2.113 5.522,-2.875 z m -5.522,2.878 c -0.122,0.051 -0.247,0.102 -0.372,0.156 0.009,0.019 0.021,0.038 0.033,0.057 0.114,-0.07 0.227,-0.143 0.339,-0.213 z m 5.315,-3.723 c -0.951,-0.365 -3.441,-0.238 -6.227,-0.016 2.784,0.238 5.273,0.376 6.227,0.016 z m -6.226,-0.016 c -0.151,-0.014 -0.308,-0.028 -0.457,-0.041 -0.001,0.027 -0.003,0.053 -0.001,0.08 0.155,-0.015 0.308,-0.028 0.458,-0.039 z m 6.435,-0.827 c -0.67,-0.763 -2.932,-1.809 -5.499,-2.905 2.351,1.502 4.489,2.783 5.499,2.905 z m -5.499,-2.905 c -0.147,-0.095 -0.297,-0.189 -0.446,-0.285 -0.013,0.026 -0.026,0.053 -0.041,0.078 0.164,0.07 0.329,0.138 0.487,0.207 z m 6.077,2.257 c -0.239,-0.989 -1.758,-2.967 -3.521,-5.132 1.385,2.425 2.683,4.552 3.521,5.132 z m -3.52,-5.132 c -0.095,-0.163 -0.188,-0.329 -0.281,-0.494 -0.026,0.018 -0.055,0.037 -0.079,0.054 0.119,0.147 0.243,0.295 0.36,0.44 z"
                       fill="url(#SvgjsRadialGradient3494)"
                       opacity="1"
                       style="fill:url(#SvgjsRadialGradient3494)" />
                    <path
                       id="SvgjsPath3497"
                       d="m 76.255,78.622 c -0.034,-0.004 -0.066,-0.01 -0.1,-0.014 -0.011,0.196 -0.022,0.393 -0.034,0.586 0.043,-0.19 0.09,-0.382 0.134,-0.572 z m -0.135,0.571 c -0.627,2.724 -1.114,5.17 -0.892,6.162 0.496,-0.888 0.722,-3.371 0.892,-6.162 z m -0.891,6.163 c -0.119,0.212 -0.25,0.344 -0.401,0.36 -0.15,0.014 -0.306,-0.091 -0.464,-0.276 -0.006,0.243 -0.06,0.421 -0.188,0.505 -0.128,0.083 -0.313,0.063 -0.539,-0.03 0.107,0.219 0.143,0.403 0.069,0.536 -0.075,0.133 -0.249,0.201 -0.489,0.224 0.194,0.144 0.312,0.289 0.308,0.441 -0.003,0.152 -0.126,0.292 -0.327,0.428 0.24,0.034 0.41,0.111 0.478,0.247 0.067,0.136 0.025,0.318 -0.091,0.532 0.229,-0.081 0.414,-0.093 0.537,-0.003 0.123,0.088 0.17,0.27 0.164,0.514 0.166,-0.177 0.325,-0.278 0.478,-0.253 0.148,0.02 0.274,0.16 0.382,0.379 0.064,-0.236 0.16,-0.396 0.306,-0.447 0.143,-0.051 0.318,0.014 0.515,0.157 -0.051,-0.237 -0.041,-0.423 0.063,-0.536 0.104,-0.113 0.29,-0.136 0.532,-0.102 -0.157,-0.187 -0.238,-0.356 -0.195,-0.504 0.039,-0.148 0.192,-0.255 0.423,-0.336 -0.226,-0.091 -0.372,-0.206 -0.407,-0.354 -0.032,-0.149 0.053,-0.316 0.218,-0.495 -0.243,0.023 -0.427,-0.009 -0.524,-0.125 -0.099,-0.115 -0.102,-0.303 -0.039,-0.538 -0.201,0.134 -0.38,0.19 -0.521,0.132 -0.147,-0.056 -0.236,-0.219 -0.288,-0.456 z m 0.804,0.327 c 0.852,-0.558 2.206,-2.65 3.652,-5.04 -1.82,2.117 -3.387,4.056 -3.652,5.04 z m 3.652,-5.042 c 0.126,-0.145 0.255,-0.292 0.38,-0.44 -0.027,-0.019 -0.052,-0.04 -0.078,-0.06 -0.101,0.169 -0.202,0.336 -0.302,0.5 z m -3.088,5.704 c 1.013,-0.099 3.187,-1.322 5.577,-2.767 -2.596,1.031 -4.887,2.02 -5.577,2.767 z m 5.576,-2.766 c 0.165,-0.065 0.333,-0.131 0.501,-0.195 -0.014,-0.029 -0.029,-0.056 -0.04,-0.083 -0.153,0.091 -0.306,0.186 -0.461,0.278 z m -5.39,3.615 c 0.943,0.382 3.437,0.309 6.227,0.142 -2.779,-0.294 -5.265,-0.483 -6.227,-0.142 z m 6.227,0.142 c 0.158,0.019 0.32,0.036 0.48,0.053 0.001,-0.027 0.002,-0.055 0.003,-0.083 -0.161,0.01 -0.325,0.02 -0.483,0.03 z m -6.452,0.697 c 0.655,0.78 2.898,1.871 5.442,3.017 -2.321,-1.551 -4.435,-2.873 -5.442,-3.017 z M 82,91.049 c 0.117,0.08 0.236,0.161 0.354,0.238 0.013,-0.021 0.024,-0.042 0.035,-0.063 C 82.262,91.168 82.129,91.109 82,91.049 Z M 75.964,88.67 c 0.221,0.993 1.699,3.004 3.419,5.205 -1.335,-2.456 -2.592,-4.609 -3.419,-5.205 z m 3.42,5.202 c 0.059,0.106 0.117,0.217 0.176,0.325 0.018,-0.013 0.034,-0.023 0.053,-0.034 -0.077,-0.098 -0.155,-0.196 -0.229,-0.291 z M 75.146,88.96 c -0.267,0.982 0.107,3.447 0.608,6.195 -0.043,-2.794 -0.153,-5.285 -0.608,-6.195 z m 0.608,6.195 c 0.002,0.11 0.004,0.224 0.004,0.337 0.021,-0.003 0.038,-0.005 0.058,-0.005 -0.02,-0.111 -0.041,-0.223 -0.062,-0.332 z m -1.469,-6.321 c -0.693,0.748 -1.508,3.102 -2.341,5.769 1.261,-2.493 2.321,-4.75 2.341,-5.769 z m -2.341,5.769 c -0.05,0.096 -0.099,0.195 -0.147,0.295 0.017,0.008 0.032,0.013 0.051,0.021 0.031,-0.104 0.065,-0.212 0.096,-0.316 z m 1.64,-6.279 c -0.964,0.338 -2.779,2.048 -4.756,4.021 2.276,-1.621 4.263,-3.13 4.756,-4.021 z m -4.756,4.021 c -0.095,0.067 -0.194,0.138 -0.29,0.206 0.014,0.016 0.027,0.028 0.041,0.045 0.082,-0.085 0.167,-0.168 0.249,-0.251 z m 4.369,-4.799 c -1.01,-0.148 -3.409,0.521 -6.078,1.349 2.77,-0.377 5.226,-0.789 6.078,-1.349 z m -6.078,1.351 c -0.131,0.018 -0.265,0.034 -0.4,0.054 0.005,0.021 0.011,0.042 0.018,0.063 0.128,-0.037 0.256,-0.078 0.382,-0.117 z m 6.098,-2.22 c -0.824,-0.599 -3.263,-1.121 -6.01,-1.627 2.626,0.95 4.995,1.727 6.01,1.627 z m -6.01,-1.627 c -0.143,-0.052 -0.29,-0.106 -0.432,-0.158 -0.008,0.026 -0.016,0.051 -0.021,0.077 0.153,0.026 0.306,0.053 0.453,0.081 z m 6.43,0.867 c -0.45,-0.911 -2.363,-2.506 -4.561,-4.23 1.883,2.06 3.617,3.851 4.561,4.23 z m -4.561,-4.229 c -0.118,-0.13 -0.236,-0.26 -0.355,-0.391 -0.021,0.022 -0.041,0.044 -0.061,0.065 0.14,0.109 0.281,0.218 0.416,0.326 z m 5.287,3.752 c 0.024,-1.017 -0.93,-3.321 -2.073,-5.868 0.709,2.701 1.414,5.091 2.073,5.868 z M 72.29,79.572 c -0.049,-0.182 -0.096,-0.366 -0.144,-0.55 -0.029,0.01 -0.062,0.021 -0.09,0.032 0.078,0.173 0.158,0.347 0.234,0.518 z"
                       fill="url(#SvgjsRadialGradient3498)"
                       opacity="1"
                       style="fill:url(#SvgjsRadialGradient3498)" />
                    <path
                       id="SvgjsPath3501"
                       d="m 78.334,87 c 0,1.842 -1.492,3.333 -3.333,3.333 -1.841,0 -3.335,-1.492 -3.335,-3.333 0,-1.841 1.494,-3.334 3.335,-3.334 1.843,0 3.333,1.493 3.333,3.334 z"
                       fill="#4e60a3"
                       stroke-width="none"
                       opacity="1" />
                    <path
                       id="SvgjsPath3502"
                       d="m 78.334,87 c 0,1.842 -1.492,3.333 -3.333,3.333 -1.841,0 -3.335,-1.492 -3.335,-3.333 0,-1.841 1.494,-3.334 3.335,-3.334 1.843,0 3.333,1.493 3.333,3.334 z"
                       fill="#000000"
                       stroke-width="none"
                       opacity="0.9" />
                    <path
                       id="SvgjsPath3503"
                       d="m 70.35,90.893 c 0.636,-0.427 1.5,-0.255 1.927,0.38 0.427,0.637 0.258,1.5 -0.379,1.927 -0.638,0.429 -1.5,0.258 -1.927,-0.378 -0.427,-0.637 -0.258,-1.502 0.379,-1.929 z"
                       fill="url(#SvgjsLinearGradient3504)"
                       opacity="0.5"
                       style="fill:url(#SvgjsLinearGradient3504)" />
                    <path
                       id="SvgjsPath3507"
                       d="m 77.635,86.536 c -0.356,0.53 -1.373,0.468 -2.275,-0.136 -0.903,-0.605 -1.346,-1.526 -0.991,-2.055 l 0.001,-0.001 c 0.354,-0.53 1.372,-0.469 2.274,0.137 0.903,0.604 1.346,1.524 0.992,2.054 z"
                       fill="url(#SvgjsLinearGradient3508)"
                       opacity="0.5"
                       style="fill:url(#SvgjsLinearGradient3508)" />
                    <path
                       id="SvgjsPath3511"
                       d="m 81.682,85.121 c -0.806,1.237 -2.884,1.31 -4.641,0.166 -1.756,-1.145 -2.527,-3.075 -1.722,-4.311 0.806,-1.235 2.884,-1.31 4.641,-0.166 1.755,1.146 2.525,3.077 1.722,4.311 z"
                       fill="url(#SvgjsLinearGradient3512)"
                       opacity="0.75"
                       style="fill:url(#SvgjsLinearGradient3512)" />
                  </g>
                </g>
              </g>
              <g
                 id="svga-group-eyesfront-left">
                <path
                   id="SvgjsPath3348"
                   d="m 55.5,88 c 0,13.807 8.06,24.999 18,24.999 9.94,0 18,-11.192 18,-24.999 0,-13.808 -8.06,-25 -18,-25 -9.94,0 -18,11.192 -18,25 z m 6.452,-3.477 c -0.506,-2.285 5.191,-3.973 12.711,-3.051 7.518,0.923 12.738,5.524 12.052,7.844 -0.38,1.286 -10.639,3.245 -14.253,2.847 -3.664,-0.405 -9.288,-2.123 -10.51,-7.64 z"
                   fill="#f3d4cf"
                   stroke-width="none"
                   opacity="1"
                   stroke="none" />
                <path
                   id="SvgjsPath3349"
                   d="m 72.462,92.163 c 3.614,0.398 13.873,-1.561 14.253,-2.847 0.687,-2.32 -4.534,-6.921 -12.052,-7.844 -6.46,-0.792 -11.563,0.345 -12.556,2.128 0.898,-6.4 7.7,-11.397 15.987,-11.434 8.911,-0.037 16.148,5.676 16.172,12.765 0.021,7.088 -7.185,12.862 -16.095,12.902 -8.913,0.037 -16.149,-5.676 -16.173,-12.764 0,-0.105 0.016,-0.208 0.019,-0.313 1.331,5.327 6.835,7.008 10.445,7.407 z"
                   fill="url(#SvgjsRadialGradient3350)"
                   opacity="1"
                   style="fill:url(#SvgjsRadialGradient3350)" />
                <path
                   id="SvgjsPath3354"
                   d="m 61.952,84.523 c -0.506,-2.285 5.191,-3.973 12.711,-3.051 7.518,0.923 12.738,5.524 12.052,7.844 -0.38,1.286 -10.639,3.245 -14.253,2.847 -3.664,-0.405 -9.288,-2.123 -10.51,-7.64 z"
                   fill="url(#SvgjsRadialGradient3355)"
                   opacity="1"
                   style="fill:url(#SvgjsRadialGradient3355)" />
                <path
                   id="SvgjsPath3358"
                   d="m 62.349,79.417 c 4.208,-1.978 9.35,-2.16 13.838,-1.005 2.404,0.561 4.965,1.285 7.063,2.638 1.945,1.135 3.525,2.5 5.002,4.19 -1.342,-1.701 -2.773,-3.118 -4.623,-4.27 -2.276,-1.416 -4.769,-2.294 -7.364,-2.916 -4.587,-1.126 -9.723,-0.87 -13.916,1.363 z"
                   fill="#c5796d"
                   stroke-width="none"
                   opacity="1"
                   stroke="none" />
                <path
                   id="SvgjsPath3359"
                   d="m 57.318,80.972 c 0,0 2.328,0.881 3.595,0.62 -0.39,-0.459 -1.096,-1.604 -1.096,-1.604 0,0 1.853,0.551 3.151,0.032 0.88,-0.352 4.065,-1 5.456,-1.066 1.687,-0.082 5.073,0.125 6.735,0.424 3.374,0.608 8.985,2.63 11.678,7.184 0.255,0.572 1.407,0.921 1.407,0.921 0,0 -1.02,-0.215 -1.149,0.042 -0.282,0.561 1.298,2.016 1.496,2.197 -0.161,-0.145 -1.289,-1.135 -1.722,-0.967 -0.061,0.022 -0.137,0.388 -0.155,0.482 0.3,-2.426 -4.838,-6.746 -12.052,-7.604 -7.52,-0.894 -13.217,0.743 -12.711,2.958 1.222,5.348 6.846,7.013 10.51,7.405 2.526,0.271 8.298,-0.577 11.675,-1.537 l 1.011,-0.317 c -1.999,1.009 -7.524,2.195 -9.767,2.403 -0.744,0.07 -2.24,0.104 -2.986,0.085 -5.949,-0.158 -10.16,-3.179 -11.729,-7.26 -0.125,-0.328 -0.494,-0.619 -0.838,-0.696 -1.604,-0.361 -5.096,-1.811 -5.096,-1.811 2.32,0.361 3.483,0.674 5.305,0.059 -1.779,-0.666 -2.718,-1.95 -2.718,-1.95 z"
                   fill="#000000"
                   stroke-width="none"
                   opacity="1"
                   stroke="none" />
              </g>
            </g>
          </g>
          <g
             id="svga-group-eyes-right-move">
            <g
               id="svga-group-eyes-right">
              <g
                 id="svga-group-eyesback-right">
                <path
                   id="SvgjsPath3333"
                   d="m 138.048,84.523 c 0.506,-2.285 -5.191,-3.973 -12.711,-3.051 -7.518,0.923 -12.738,5.524 -12.052,7.844 0.38,1.286 10.639,3.245 14.253,2.847 3.664,-0.405 9.288,-2.123 10.51,-7.64 z"
                   fill="url(#SvgjsRadialGradient3334)"
                   opacity="1"
                   style="fill:url(#SvgjsRadialGradient3334)" />
              </g>
              <g
                 id="svga-group-eyesiriswrapper-right"
                 transform="translate(0.75,-0.5)">
                <g
                   id="svga-group-eyesiriscontrol-right">
                  <g
                     id="svga-group-eyesiris-right"
                     transform="matrix(0.9499999,0,0,0.9499999,6.2500125,4.3499587)">
                    <path
                       id="SvgjsPath3515"
                       d="m 133.5,87 c 0,4.694 -3.806,8.5 -8.499,8.5 -4.694,0 -8.501,-3.806 -8.501,-8.5 v 0 c 0,-4.694 3.807,-8.5 8.501,-8.5 4.693,-0.001 8.499,3.805 8.499,8.5 z"
                       fill="#4e60a3"
                       stroke-width="none"
                       opacity="1" />
                    <path
                       id="SvgjsPath3516"
                       d="m 124.048,78.595 c -0.033,0.004 -0.066,0.008 -0.101,0.012 0.041,0.191 0.081,0.384 0.12,0.575 -0.007,-0.195 -0.012,-0.393 -0.019,-0.587 z m 0.018,0.585 c 0.099,2.793 0.262,5.282 0.732,6.183 0.249,-0.986 -0.173,-3.443 -0.732,-6.183 z m 0.734,6.185 c -0.061,0.236 -0.153,0.397 -0.294,0.452 -0.142,0.053 -0.319,-0.008 -0.521,-0.146 0.058,0.236 0.052,0.422 -0.051,0.537 -0.102,0.114 -0.285,0.142 -0.527,0.11 0.16,0.184 0.242,0.353 0.206,0.5 -0.039,0.148 -0.189,0.258 -0.415,0.343 0.225,0.088 0.376,0.199 0.411,0.347 0.036,0.148 -0.046,0.315 -0.205,0.498 0.241,-0.029 0.426,0.001 0.525,0.115 0.101,0.114 0.106,0.301 0.05,0.537 0.199,-0.137 0.376,-0.197 0.518,-0.142 0.143,0.053 0.234,0.216 0.291,0.454 0.114,-0.215 0.243,-0.353 0.396,-0.368 0.148,-0.02 0.307,0.084 0.466,0.267 0.002,-0.244 0.053,-0.423 0.181,-0.51 0.124,-0.086 0.311,-0.069 0.537,0.018 -0.11,-0.216 -0.148,-0.398 -0.078,-0.534 0.071,-0.135 0.245,-0.207 0.487,-0.235 -0.199,-0.14 -0.321,-0.283 -0.318,-0.436 -0.001,-0.153 0.119,-0.296 0.321,-0.434 -0.241,-0.03 -0.412,-0.103 -0.484,-0.237 -0.07,-0.135 -0.031,-0.319 0.081,-0.535 -0.229,0.085 -0.413,0.102 -0.538,0.016 -0.126,-0.086 -0.177,-0.267 -0.178,-0.51 -0.158,0.182 -0.316,0.282 -0.468,0.262 -0.152,-0.02 -0.282,-0.154 -0.393,-0.369 z m 0.86,0.106 c 0.679,-0.758 1.446,-3.13 2.224,-5.813 -1.21,2.516 -2.222,4.795 -2.224,5.813 z m 2.223,-5.814 c 0.085,-0.172 0.172,-0.348 0.253,-0.524 -0.03,-0.011 -0.06,-0.024 -0.09,-0.037 -0.054,0.188 -0.108,0.376 -0.163,0.561 z m -1.506,6.308 c 0.953,-0.357 2.736,-2.101 4.671,-4.115 -2.24,1.667 -4.197,3.215 -4.671,4.115 z m 4.671,-4.114 c 0.142,-0.106 0.287,-0.213 0.433,-0.318 -0.021,-0.025 -0.043,-0.047 -0.06,-0.07 -0.124,0.127 -0.247,0.259 -0.373,0.388 z m -4.271,4.887 c 1.01,0.125 3.399,-0.591 6.052,-1.475 -2.761,0.435 -5.212,0.896 -6.052,1.475 z m 6.052,-1.475 c 0.156,-0.022 0.318,-0.048 0.478,-0.073 -0.007,-0.026 -0.013,-0.054 -0.02,-0.081 -0.152,0.051 -0.308,0.103 -0.458,0.154 z m -6.054,2.343 c 0.836,0.583 3.284,1.057 6.038,1.505 -2.642,-0.897 -5.027,-1.627 -6.038,-1.505 z m 6.038,1.505 c 0.135,0.047 0.271,0.095 0.404,0.138 0.007,-0.024 0.013,-0.047 0.018,-0.071 -0.137,-0.02 -0.281,-0.043 -0.422,-0.067 z m -6.446,-0.736 c 0.471,0.902 2.42,2.462 4.649,4.142 -1.924,-2.025 -3.696,-3.78 -4.649,-4.142 z m 4.651,4.139 c 0.083,0.087 0.17,0.179 0.253,0.268 0.014,-0.017 0.027,-0.031 0.043,-0.046 -0.099,-0.074 -0.201,-0.149 -0.296,-0.222 z m -5.366,-3.647 c -0.004,1.019 0.995,3.302 2.191,5.827 -0.764,-2.688 -1.516,-5.066 -2.191,-5.827 z m 2.192,5.827 c 0.03,0.106 0.062,0.215 0.09,0.324 0.021,-0.008 0.036,-0.015 0.055,-0.02 -0.048,-0.102 -0.097,-0.205 -0.145,-0.304 z m -3.056,-5.726 c -0.476,0.902 -0.653,3.386 -0.768,6.178 0.574,-2.733 1.011,-5.188 0.768,-6.178 z m -0.767,6.178 c -0.023,0.106 -0.044,0.214 -0.066,0.323 0.02,0.004 0.035,0.005 0.055,0.007 0.003,-0.108 0.008,-0.222 0.011,-0.33 z m -0.042,-6.489 c -0.844,0.576 -2.154,2.697 -3.553,5.114 1.778,-2.154 3.307,-4.126 3.553,-5.114 z m -3.552,5.114 c -0.074,0.09 -0.152,0.185 -0.229,0.274 0.018,0.012 0.034,0.02 0.053,0.034 0.058,-0.103 0.118,-0.206 0.176,-0.308 z m 2.978,-5.765 c -1.015,0.119 -3.16,1.385 -5.522,2.875 2.577,-1.08 4.843,-2.113 5.522,-2.875 z m -5.522,2.878 c -0.122,0.051 -0.247,0.102 -0.372,0.156 0.009,0.019 0.021,0.038 0.033,0.057 0.114,-0.07 0.227,-0.143 0.339,-0.213 z m 5.315,-3.723 c -0.951,-0.365 -3.441,-0.238 -6.227,-0.016 2.784,0.238 5.273,0.376 6.227,0.016 z m -6.226,-0.016 c -0.151,-0.014 -0.308,-0.028 -0.457,-0.041 -0.001,0.027 -0.003,0.053 -0.001,0.08 0.155,-0.015 0.308,-0.028 0.458,-0.039 z m 6.435,-0.827 c -0.67,-0.763 -2.932,-1.809 -5.499,-2.905 2.351,1.502 4.489,2.783 5.499,2.905 z m -5.499,-2.905 c -0.147,-0.095 -0.297,-0.189 -0.446,-0.285 -0.013,0.026 -0.026,0.053 -0.041,0.078 0.164,0.07 0.329,0.138 0.487,0.207 z m 6.077,2.257 c -0.239,-0.989 -1.758,-2.967 -3.521,-5.132 1.385,2.425 2.683,4.552 3.521,5.132 z m -3.52,-5.132 c -0.095,-0.163 -0.188,-0.329 -0.281,-0.494 -0.026,0.018 -0.055,0.037 -0.079,0.054 0.119,0.147 0.243,0.295 0.36,0.44 z"
                       fill="url(#SvgjsRadialGradient3517)"
                       opacity="1"
                       style="fill:url(#SvgjsRadialGradient3517)" />
                    <path
                       id="SvgjsPath3520"
                       d="m 126.255,78.622 c -0.034,-0.004 -0.066,-0.01 -0.1,-0.014 -0.011,0.196 -0.022,0.393 -0.034,0.586 0.043,-0.19 0.09,-0.382 0.134,-0.572 z m -0.135,0.571 c -0.627,2.724 -1.114,5.17 -0.892,6.162 0.496,-0.888 0.722,-3.371 0.892,-6.162 z m -0.891,6.163 c -0.119,0.212 -0.25,0.344 -0.401,0.36 -0.15,0.014 -0.306,-0.091 -0.464,-0.276 -0.006,0.243 -0.06,0.421 -0.188,0.505 -0.128,0.083 -0.313,0.063 -0.539,-0.03 0.107,0.219 0.143,0.403 0.069,0.536 -0.075,0.133 -0.249,0.201 -0.489,0.224 0.194,0.144 0.312,0.289 0.308,0.441 -0.003,0.152 -0.126,0.292 -0.327,0.428 0.24,0.034 0.41,0.111 0.478,0.247 0.067,0.136 0.025,0.318 -0.091,0.532 0.229,-0.081 0.414,-0.093 0.537,-0.003 0.123,0.088 0.17,0.27 0.164,0.514 0.166,-0.177 0.325,-0.278 0.478,-0.253 0.148,0.02 0.274,0.16 0.382,0.379 0.064,-0.236 0.16,-0.396 0.306,-0.447 0.143,-0.051 0.318,0.014 0.515,0.157 -0.051,-0.237 -0.041,-0.423 0.063,-0.536 0.104,-0.113 0.29,-0.136 0.532,-0.102 -0.157,-0.187 -0.238,-0.356 -0.195,-0.504 0.039,-0.148 0.192,-0.255 0.423,-0.336 -0.226,-0.091 -0.372,-0.206 -0.407,-0.354 -0.032,-0.149 0.053,-0.316 0.218,-0.495 -0.243,0.023 -0.427,-0.009 -0.524,-0.125 -0.099,-0.115 -0.102,-0.303 -0.039,-0.538 -0.201,0.134 -0.38,0.19 -0.521,0.132 -0.147,-0.056 -0.236,-0.219 -0.288,-0.456 z m 0.804,0.327 c 0.852,-0.558 2.206,-2.65 3.652,-5.04 -1.82,2.117 -3.387,4.056 -3.652,5.04 z m 3.652,-5.042 c 0.126,-0.145 0.255,-0.292 0.38,-0.44 -0.027,-0.019 -0.052,-0.04 -0.078,-0.06 -0.101,0.169 -0.202,0.336 -0.302,0.5 z m -3.088,5.704 c 1.013,-0.099 3.187,-1.322 5.577,-2.767 -2.596,1.031 -4.887,2.02 -5.577,2.767 z m 5.576,-2.766 c 0.165,-0.065 0.333,-0.131 0.501,-0.195 -0.014,-0.029 -0.029,-0.056 -0.04,-0.083 -0.153,0.091 -0.306,0.186 -0.461,0.278 z m -5.39,3.615 c 0.943,0.382 3.437,0.309 6.227,0.142 -2.779,-0.294 -5.265,-0.483 -6.227,-0.142 z m 6.227,0.142 c 0.158,0.019 0.32,0.036 0.48,0.053 0.001,-0.027 0.002,-0.055 0.003,-0.083 -0.161,0.01 -0.325,0.02 -0.483,0.03 z m -6.452,0.697 c 0.655,0.78 2.898,1.871 5.442,3.017 -2.321,-1.551 -4.435,-2.873 -5.442,-3.017 z M 132,91.049 c 0.117,0.08 0.236,0.161 0.354,0.238 0.013,-0.021 0.024,-0.042 0.035,-0.063 -0.127,-0.056 -0.26,-0.115 -0.389,-0.175 z m -6.036,-2.379 c 0.221,0.993 1.699,3.004 3.419,5.205 -1.335,-2.456 -2.592,-4.609 -3.419,-5.205 z m 3.42,5.202 c 0.059,0.106 0.117,0.217 0.176,0.325 0.018,-0.013 0.034,-0.023 0.053,-0.034 -0.077,-0.098 -0.155,-0.196 -0.229,-0.291 z m -4.238,-4.912 c -0.267,0.982 0.107,3.447 0.608,6.195 -0.043,-2.794 -0.153,-5.285 -0.608,-6.195 z m 0.608,6.195 c 0.002,0.11 0.004,0.224 0.004,0.337 0.021,-0.003 0.038,-0.005 0.058,-0.005 -0.02,-0.111 -0.041,-0.223 -0.062,-0.332 z m -1.469,-6.321 c -0.693,0.748 -1.508,3.102 -2.341,5.769 1.261,-2.493 2.321,-4.75 2.341,-5.769 z m -2.341,5.769 c -0.05,0.096 -0.099,0.195 -0.147,0.295 0.017,0.008 0.032,0.013 0.051,0.021 0.031,-0.104 0.065,-0.212 0.096,-0.316 z m 1.64,-6.279 c -0.964,0.338 -2.779,2.048 -4.756,4.021 2.276,-1.621 4.263,-3.13 4.756,-4.021 z m -4.756,4.021 c -0.095,0.067 -0.194,0.138 -0.29,0.206 0.014,0.016 0.027,0.028 0.041,0.045 0.082,-0.085 0.167,-0.168 0.249,-0.251 z m 4.369,-4.799 c -1.01,-0.148 -3.409,0.521 -6.078,1.349 2.77,-0.377 5.226,-0.789 6.078,-1.349 z m -6.078,1.351 c -0.131,0.018 -0.265,0.034 -0.4,0.054 0.005,0.021 0.011,0.042 0.018,0.063 0.128,-0.037 0.256,-0.078 0.382,-0.117 z m 6.098,-2.22 c -0.824,-0.599 -3.263,-1.121 -6.01,-1.627 2.626,0.95 4.995,1.727 6.01,1.627 z m -6.01,-1.627 c -0.143,-0.052 -0.29,-0.106 -0.432,-0.158 -0.008,0.026 -0.016,0.051 -0.021,0.077 0.153,0.026 0.306,0.053 0.453,0.081 z m 6.43,0.867 c -0.45,-0.911 -2.363,-2.506 -4.561,-4.23 1.883,2.06 3.617,3.851 4.561,4.23 z m -4.561,-4.229 c -0.118,-0.13 -0.236,-0.26 -0.355,-0.391 -0.021,0.022 -0.041,0.044 -0.061,0.065 0.14,0.109 0.281,0.218 0.416,0.326 z m 5.287,3.752 c 0.024,-1.017 -0.93,-3.321 -2.073,-5.868 0.709,2.701 1.414,5.091 2.073,5.868 z m -2.073,-5.868 c -0.049,-0.182 -0.096,-0.366 -0.144,-0.55 -0.029,0.01 -0.062,0.021 -0.09,0.032 0.078,0.173 0.158,0.347 0.234,0.518 z"
                       fill="url(#SvgjsRadialGradient3521)"
                       opacity="1"
                       style="fill:url(#SvgjsRadialGradient3521)" />
                    <path
                       id="SvgjsPath3524"
                       d="m 128.334,87 c 0,1.842 -1.492,3.333 -3.333,3.333 -1.841,0 -3.335,-1.492 -3.335,-3.333 0,-1.841 1.494,-3.334 3.335,-3.334 1.843,0 3.333,1.493 3.333,3.334 z"
                       fill="#4e60a3"
                       stroke-width="none"
                       opacity="1" />
                    <path
                       id="SvgjsPath3525"
                       d="m 128.334,87 c 0,1.842 -1.492,3.333 -3.333,3.333 -1.841,0 -3.335,-1.492 -3.335,-3.333 0,-1.841 1.494,-3.334 3.335,-3.334 1.843,0 3.333,1.493 3.333,3.334 z"
                       fill="#000000"
                       stroke-width="none"
                       opacity="0.9" />
                    <path
                       id="SvgjsPath3526"
                       d="m 120.35,90.893 c 0.636,-0.427 1.5,-0.255 1.927,0.38 0.427,0.637 0.258,1.5 -0.379,1.927 -0.638,0.429 -1.5,0.258 -1.927,-0.378 -0.427,-0.637 -0.258,-1.502 0.379,-1.929 z"
                       fill="url(#SvgjsLinearGradient3527)"
                       opacity="0.5"
                       style="fill:url(#SvgjsLinearGradient3527)" />
                    <path
                       id="SvgjsPath3530"
                       d="m 127.635,86.536 c -0.356,0.53 -1.373,0.468 -2.275,-0.136 -0.903,-0.605 -1.346,-1.526 -0.991,-2.055 l 0.001,-0.001 c 0.354,-0.53 1.372,-0.469 2.274,0.137 0.903,0.604 1.346,1.524 0.992,2.054 z"
                       fill="url(#SvgjsLinearGradient3531)"
                       opacity="0.5"
                       style="fill:url(#SvgjsLinearGradient3531)" />
                    <path
                       id="SvgjsPath3534"
                       d="m 131.682,85.121 c -0.806,1.237 -2.884,1.31 -4.641,0.166 -1.756,-1.145 -2.527,-3.075 -1.722,-4.311 0.806,-1.235 2.884,-1.31 4.641,-0.166 1.755,1.146 2.525,3.077 1.722,4.311 z"
                       fill="url(#SvgjsLinearGradient3535)"
                       opacity="0.75"
                       style="fill:url(#SvgjsLinearGradient3535)" />
                  </g>
                </g>
              </g>
              <g
                 id="svga-group-eyesfront-right">
                <path
                   id="SvgjsPath3368"
                   d="m 126.5,63 c -9.94,0 -18,11.192 -18,25 0,13.807 8.06,24.999 18,24.999 9.94,0 18,-11.192 18,-24.999 0,-13.808 -8.06,-25 -18,-25 z m 1.038,29.163 c -3.614,0.398 -13.873,-1.561 -14.253,-2.847 -0.687,-2.32 4.534,-6.921 12.052,-7.844 7.52,-0.922 13.217,0.767 12.711,3.051 -1.222,5.517 -6.846,7.235 -10.51,7.64 z"
                   fill="#f3d4cf"
                   stroke-width="none"
                   opacity="1"
                   stroke="none" />
                <path
                   id="SvgjsPath3369"
                   d="m 127.538,92.163 c -3.614,0.398 -13.873,-1.561 -14.253,-2.847 -0.687,-2.32 4.534,-6.921 12.052,-7.844 6.46,-0.792 11.563,0.345 12.556,2.128 -0.898,-6.4 -7.7,-11.397 -15.987,-11.434 -8.911,-0.037 -16.148,5.676 -16.172,12.765 -0.021,7.088 7.185,12.862 16.095,12.902 8.913,0.037 16.149,-5.676 16.173,-12.764 0,-0.105 -0.016,-0.208 -0.019,-0.313 -1.331,5.327 -6.835,7.008 -10.445,7.407 z"
                   fill="url(#SvgjsRadialGradient3370)"
                   opacity="1"
                   style="fill:url(#SvgjsRadialGradient3370)" />
                <path
                   id="SvgjsPath3374"
                   d="m 138.048,84.523 c 0.506,-2.285 -5.191,-3.973 -12.711,-3.051 -7.518,0.923 -12.738,5.524 -12.052,7.844 0.38,1.286 10.639,3.245 14.253,2.847 3.664,-0.405 9.288,-2.123 10.51,-7.64 z"
                   fill="url(#SvgjsRadialGradient3375)"
                   opacity="1"
                   style="fill:url(#SvgjsRadialGradient3375)" />
                <path
                   id="SvgjsPath3378"
                   d="m 137.651,79.417 c -4.208,-1.978 -9.35,-2.16 -13.838,-1.005 -2.404,0.561 -4.965,1.285 -7.063,2.638 -1.945,1.135 -3.525,2.5 -5.002,4.19 1.342,-1.701 2.773,-3.118 4.623,-4.27 2.276,-1.416 4.769,-2.294 7.364,-2.916 4.587,-1.126 9.723,-0.87 13.916,1.363 z"
                   fill="#c5796d"
                   stroke-width="none"
                   opacity="1"
                   stroke="none" />
                <path
                   id="SvgjsPath3379"
                   d="m 142.682,80.972 c 0,0 -2.328,0.881 -3.595,0.62 0.39,-0.459 1.096,-1.604 1.096,-1.604 0,0 -1.853,0.551 -3.151,0.032 -0.88,-0.352 -4.065,-1 -5.456,-1.066 -1.687,-0.082 -5.073,0.125 -6.735,0.424 -3.374,0.608 -8.985,2.63 -11.678,7.184 -0.255,0.572 -1.407,0.921 -1.407,0.921 0,0 1.02,-0.215 1.149,0.042 0.282,0.561 -1.298,2.016 -1.496,2.197 0.161,-0.145 1.289,-1.135 1.722,-0.967 0.061,0.022 0.137,0.388 0.155,0.482 -0.3,-2.426 4.838,-6.746 12.052,-7.604 7.52,-0.894 13.217,0.743 12.711,2.958 -1.222,5.348 -6.846,7.013 -10.51,7.405 -2.526,0.271 -8.298,-0.577 -11.675,-1.537 l -1.011,-0.317 c 1.999,1.009 7.524,2.195 9.767,2.403 0.744,0.07 2.24,0.104 2.986,0.085 5.949,-0.158 10.16,-3.179 11.729,-7.26 0.125,-0.328 0.494,-0.619 0.838,-0.696 1.604,-0.361 5.096,-1.811 5.096,-1.811 -2.32,0.361 -3.483,0.674 -5.305,0.059 1.779,-0.666 2.718,-1.95 2.718,-1.95 z"
                   fill="#000000"
                   stroke-width="none"
                   opacity="1"
                   stroke="none" />
              </g>
            </g>
          </g>
          <g
             id="svga-group-facehighlight-single">
            <path
               id="SvgjsPath2769"
               d="m 140.204,113.007 c 0.035,22.275 -17.995,40.365 -40.273,40.396 C 77.657,153.439 59.57,135.41 59.535,113.131 59.501,90.857 77.53,72.77 99.808,72.735 c 22.275,-0.034 40.363,17.995 40.396,40.272 z"
               fill="url(#SvgjsRadialGradient2770)"
               opacity="1"
               style="fill:url(#SvgjsRadialGradient2770)" />
            <path
               id="SvgjsPath2773"
               d="m 135,55.999 c 0,19.329 -15.671,35 -35,35 -19.329,0 -35,-15.671 -35,-35 0,-19.329 15.671,-35 35,-35 19.329,0 35,15.671 35,35 z"
               fill="url(#SvgjsRadialGradient2774)"
               opacity="1"
               style="fill:url(#SvgjsRadialGradient2774)" />
          </g>
          <g
             id="svga-group-eyebrows-left-move">
            <g
               id="svga-group-eyebrows-left-rotate">
              <g
                 id="svga-group-eyebrows-left">
                <path
                   id="SvgjsPath2794"
                   d="m 74.799,69.068 c -4.425,-0.475 -21.252,3.714 -21.252,3.714 0,0 16.789,-6.74 23.757,-5.667 5.188,0.798 14.397,5.077 12.706,7.339 -1.361,1.821 -5.602,-4.354 -15.211,-5.386 z"
                   fill="#2a232b"
                   stroke-width="none"
                   opacity="1" />
              </g>
            </g>
          </g>
          <g
             id="svga-group-eyebrows-right-move">
            <g
               id="svga-group-eyebrows-right-rotate">
              <g
                 id="svga-group-eyebrows-right">
                <path
                   id="SvgjsPath2795"
                   d="m 109.731,74.187 c -1.713,-2.292 7.592,-6.31 13.546,-6.804 7.117,-0.59 22.914,4.085 22.914,4.085 0,0 -15.9,-2.628 -20.377,-2.106 -9.816,1.144 -14.704,6.669 -16.083,4.825 z"
                   fill="#2a232b"
                   stroke-width="none"
                   opacity="1" />
              </g>
            </g>
          </g>
          <g
             id="svga-group-nose-single-move">
            <g
               id="svga-group-nose-single">
              <path
                 id="SvgjsPath2906"
                 d="m 92.281,116.235 c -0.745,2.063 5.028,4.289 7.218,4.426 2.374,0.147 9.024,-2.899 7.896,-4.991 -1.185,-2.197 -5.63,-0.286 -7.547,-0.286 -1.908,0 -6.572,-1.905 -7.567,0.851 z"
                 fill="#e4b3ab"
                 stroke-width="none"
                 opacity="1"
                 stroke="none" />
              <path
                 id="SvgjsPath2907"
                 d="m 102.207,117.221 c -0.243,-0.522 1.194,-1.333 1.748,-1.493 0.777,-0.226 2.505,0.238 2.438,0.831 -0.06,0.521 -1.603,-0.169 -2.105,-0.022 -0.521,0.15 -1.853,1.175 -2.081,0.684 z m -6.993,-0.479 c 0.706,0 1.753,0.457 1.945,0.057 0.229,-0.479 -1.56,-1.065 -2.086,-1 -0.434,0.052 -1.991,0.958 -1.777,1.338 0.2,0.353 0.988,-0.395 1.918,-0.395 z"
                 fill="#c5796d"
                 stroke-width="none"
                 opacity="1"
                 stroke="none" />
              <path
                 id="SvgjsPath2908"
                 d="m 99.857,113.479 c 0.669,0 1.807,-0.637 1.978,-1.9 0.754,-5.575 -0.521,-20.246 -1.978,-20.246 -1.365,0 -2.508,15.024 -2.155,20.246 0.087,1.281 1.397,1.9 2.155,1.9"
                 fill="#ffffff"
                 stroke-width="none"
                 opacity="0.2"
                 stroke="none" />
            </g>
          </g>
          <g
             id="svga-group-hair-front">
            <path
               id="SvgjsPath2936"
               d="m 135.453,136.583 c 4.073,-9.43 7.262,-21.972 9.477,-37.279 0.067,-0.451 0.117,-0.808 0.156,-1.061 0.992,-6.489 0.009,-15.862 -4.491,-21.104 l -0.209,-0.244 1.063,-0.289 c -0.539,0.124 -1.096,0.247 -1.669,0.366 -3.895,0.812 -7.551,1.224 -10.876,1.224 -8.797,0 -15.616,-2.829 -20.263,-8.409 -2.884,-3.464 -4.68,-11.368 -6.582,-19.735 -2.544,-11.194 -5.175,-22.769 -10.662,-26.053 -1.272,-0.758 -2.77,-1.193 -4.105,-1.193 -1.154,0 -2.151,0.307 -2.96,0.912 C 80.825,26.344 81.281,34 82.011,37.903 75.35,33.71 70.766,34.256 67.879,36.095 62.451,39.554 59.711,47.94 58.854,57.649 58.207,64.993 57.473,73.317 54.619,81.175 51,91.12 55.383,83.011 55.383,83.011 l 0.112,0.573 c 2.247,11.564 3.201,20.767 2.542,28.887 -0.72,8.862 -0.989,15.863 2.911,22.094 l 0.237,0.378 -0.427,-0.071 C 52.866,133.559 36.025,125.68 34.341,109.696 l -0.051,-0.488 0.363,0.313 c 0.315,0.271 2.397,1.733 4.077,2.905 C 30.481,104.425 25.758,96.487 25.758,82.184 l 0.361,-0.091 c 0.516,1.047 1.169,2.106 1.751,2.979 -3.586,-8.104 -3.808,-18.838 -2.478,-23.624 l 0.124,-0.445 0.225,0.399 c 0.955,1.693 2.194,3.886 3.725,5.646 C 22.48,55.151 24.97,43.111 30.464,36.73 l 0.298,-0.345 0.036,0.463 c 0.138,1.79 0.315,4.052 1.052,5.933 -1.572,-6.165 -0.748,-20.448 12.067,-29.989 l 0.496,-0.37 -0.206,0.6 C 43.775,14.286 43.346,15.701 43.253,16.98 46.777,8.871 52.778,5.188 60.658,2.515 L 61.111,2.362 60.886,2.8 C 60.342,3.861 58.898,6.676 59.386,8.369 59.389,8.087 59.437,7.756 59.545,7.368 60.68,3.291 67.8,-4.195 76.029,-4.195 h 0.348 l -0.186,0.308 c -0.233,0.382 -0.436,0.783 -0.606,1.2 2.336,-3.445 6.864,-5.813 11.42,-5.813 2.583,0 4.913,0.759 6.735,2.196 l 0.227,0.179 -0.244,0.152 c -1.506,0.943 -2.912,2.001 -4.195,3.053 5.901,-3.859 10.306,-6.315 16.26,-6.315 3.459,0 7.326,0.824 12.176,2.592 14.423,5.252 24.526,7.891 28.151,20.928 -0.557,-1.779 -1.009,-1.875 -2.27,-4.387 l -0.214,-0.425 0.44,0.142 c 16.21,5.222 16.52,13.536 16.745,21.066 0.017,0.563 0.033,1.115 0.056,1.651 0.056,-0.743 0.12,-1.481 0.187,-2.209 0.125,-1.394 0.255,-2.836 0.29,-4.253 l 0.01,-0.353 0.285,0.189 c 2.37,1.573 10.314,12.614 12.4,25.004 1.406,8.331 0.191,12.962 -0.979,17.442 -0.246,0.938 -0.496,1.892 -0.723,2.884 0.282,-0.947 0.574,-1.869 0.88,-2.777 l 0.147,-0.44 0.203,0.416 c 8.769,17.928 1.639,25.74 -4.09,32.018 -0.592,0.648 -1.17,1.282 -1.713,1.907 1.346,-1.315 2.674,-2.543 3.867,-3.634 l 0.306,-0.279 0.013,0.424 c 0.222,7.91 -5.008,11.922 -9.624,15.462 -2.078,1.594 -4.063,3.116 -5.325,4.851 1.519,-1.341 3.349,-2.649 5.654,-4.049 l 0.402,-0.242 -0.12,0.466 c -1.854,7.306 -9.894,11.861 -23.215,19.408 -1.289,0.729 -4.51,2.563 -4.51,2.563 z"
               fill="#edbe44"
               stroke-width="none"
               opacity="1"
               stroke="none" />
            <path
               id="SvgjsPath2937"
               d="m 140.595,77.138 c -18.193,3.675 -29.7,1.541 -36.476,-13.193 -3.777,-30.062 -8.219,-39.376 -16.828,-41.14 25.894,2.769 6.877,57.083 53.304,54.333 z m 0,0 c 9.312,14.194 -0.924,49.657 -5.376,59.989 13.996,-26.224 24.385,-55.743 5.376,-59.989 z M 76,34 C 65,30 59,40 57,49 54.82,62.077 56.62,80.068 40,101 52.198,90.506 56.776,86.715 60.089,57.495 c 1.098,-9.685 2.362,-17.94 7.79,-21.399 2.514,-1.602 6.315,-2.22 11.652,0.414 C 78.539,34.84 76.646,34 76,34 Z m -17.495,77.733 c 0.612,-7.55 0.017,-16.946 -3.195,-28.105 -0.783,18.777 -8.53,30.985 4.649,49.982 0.188,0.073 0.375,0.147 0.563,0.219 -3.417,-6.047 -2.708,-13.58 -2.017,-22.096 z"
               fill="#deac29"
               stroke-width="none"
               opacity="1"
               stroke="none" />
            <path
               id="SvgjsPath2938"
               d="m 145.324,58.292 c -0.047,-0.001 -0.045,0 0.128,0.007 C 122.58,58.065 114.757,48.475 110.67,35.585 103.032,11.465 80.977,11.379 77.527,26.96 80.57,8.686 106.43,12.225 113.178,34.836 c 4.878,16.316 17.008,22.766 32.146,23.456 z M 143.106,16.533 C 126.913,-8.439 75.532,3.522 73.752,23.993 74.334,1.445 126.233,-11.253 143.106,16.533 Z M 76.913,31.942 C 75.857,30.049 72.327,25.378 65.268,27.51 35.254,36.578 47.72,78.588 31.98,95.961 43.456,81.27 32.301,36.623 64.509,26.908 c 4.885,-1.474 10.322,0.277 12.404,5.034 z m 0.002,-9.658 C 79.456,11.373 93.207,6.169 103.591,7.309 c 12.555,1.378 15.997,14.619 21.2,20.917 8.055,9.752 17.439,10.502 27.63,8.976 -1.863,0.279 -14.891,5.226 -27.305,-5.945 -9.141,-8.23 -8.852,-18.521 -21.154,-22.038 -6.733,-1.924 -23.403,1.055 -27.047,13.065 z m 78.281,68.591 c 0.313,-0.373 0.79,-0.663 1.149,-0.99 12.229,-11.132 8.885,-32.389 1.794,-37.559 6.129,6.089 7.896,25.629 -2.943,38.549 z m 5.902,9.75 c -3.946,4.501 -9.933,12.873 -9.688,13.873 -0.295,-1.215 9.346,-10.466 10.222,-11.625 4.784,-6.33 7,-12.439 4.996,-18.441 0.911,5.78 0.465,9.355 -5.53,16.193 z M 55.378,16.227 c -14.68,3.301 -12.107,23.189 -12.345,24.189 0.238,-1 0.325,-20.632 15.298,-22.799 -0.077,0.004 -0.098,0.004 -0.064,0.002 5.048,-0.217 11,0.109 14.91,3.705 C 69.087,16.51 59.341,15.335 55.378,16.227 Z M 74.958,2.319 C 76.324,0.522 78.95,-2.137 82.512,-2.113 79.484,-2.13 76.21,-2.164 73.252,1.612 71.5,3.85 69.461,9.691 70.778,12.596 70.391,9.074 73.379,4.396 74.958,2.319 Z M 63.869,45.645 C 66.396,33.059 73.83,33.601 81.074,37.542 73.12,37.329 66.293,41.478 63.869,45.645 Z M 82.033,37.471 C 80.2,21.045 90.468,16.783 96.386,34.099 91.807,33.275 85.371,34.062 82.033,37.471 Z"
               fill="#ce9a12"
               stroke-width="none"
               opacity="1"
               stroke="none" />
            <path
               id="SvgjsPath2939"
               d="m 43.245,88.393 c 6.21,-11.865 3.609,-32.352 9.748,-41.739 -5.097,13.466 -3.435,28.062 -9.748,41.739 z m 10.986,40.732 c -7.173,-7.228 -10.447,-16.268 -9.544,-26.425 -3.632,11.181 1.195,19.158 9.544,26.425 z M 32.207,47.33 C 27.693,55.186 30.561,59.98 34.981,67.431 31.552,62.645 28.107,52.807 32.207,47.33 Z m 1.365,37.964 c -2.736,-3.85 -5.306,-8.574 -5.276,-13.561 1.606,4.813 0.47,10.059 5.276,13.561 z M 40.7,47.569 C 37.307,38.767 39.192,28.039 42.961,19.646 36.927,28.282 35.782,38.328 40.7,47.569 Z M 117.56,-4.839 C 99.84,-6.906 83.557,-4.017 73.519,13.085 83.277,-0.626 101.23,-6.846 117.56,-4.839 Z m 33.361,33.53 c -19.725,-0.53 -23.47,-23.613 -42.557,-23.028 19.027,0.476 21.008,23.696 42.557,23.028 z m 11.971,59.75 c 5.6,-15.989 10.484,-30.128 0.417,-46.175 8.424,16.668 4.856,29.723 -0.417,46.175 z m -8.387,27.106 c -3.428,7.385 -8.313,9.885 -13.778,15.539 6.871,-2.903 12.04,-8.18 13.778,-15.539 z m 0.607,-68.667 c -14.333,0.554 -27.096,-3.42 -35.116,-15.573 6.919,14.313 20.453,17.069 35.116,15.573 z"
               fill="#fcd162"
               stroke-width="none"
               opacity="1"
               stroke="none" />
            <path
               id="SvgjsPath2940"
               d="m 179.475,82.804 c 0.005,0.018 0.006,-0.012 -0.001,-0.142 -0.01,-0.068 -0.017,-0.106 -0.021,-0.127 -0.681,-4.582 -1.776,-8.134 -4.785,-13.389 -0.303,-0.525 -1.071,-1.37 -0.882,-1.951 0.822,-2.485 4.435,-11.733 0.758,-23.114 -1.646,-5.076 -8.407,-16.142 -12.744,-18.91 -1.355,-11.878 -6.353,-13.801 -18.127,-16.226 0.169,0.294 0.332,0.596 0.49,0.904 19.536,6.37 15.576,18.102 16.786,25.495 -0.024,-3.157 0.515,-6.309 0.599,-9.465 2.242,1.489 10.189,12.306 12.307,24.868 2.062,12.204 -1.492,16.26 -2.392,24.204 0.567,-2.246 1.199,-4.433 1.944,-6.627 10.874,22.246 -2.971,28.891 -7.729,36.23 1.949,-2.05 3.989,-3.97 6.084,-5.875 0.35,12.208 -12.526,15.039 -15.665,21.416 1.974,-1.952 4.282,-3.552 6.666,-4.99 -2.01,7.926 -11.433,12.604 -27.135,21.559 6.678,-15.453 9.153,-35.195 9.645,-38.389 0.893,-5.856 0.302,-15.627 -4.534,-21.273 2.936,-0.798 5.926,-1.575 8.768,-2.664 -2.385,0 -27.827,10.785 -40.72,-4.686 -6.831,-8.199 -7.54,-39.99 -17.292,-45.823 -2.11,-1.262 -5.17,-1.845 -7.277,-0.27 -3.157,2.361 -3.334,8.466 -2.694,12.726 0.001,0.607 0.064,1.201 0.064,1.201 0,0 -1,-0.656 -1.38,-0.875 -3.825,-2.035 -8.559,-3.158 -12.427,-0.689 -9.606,6.133 -6.676,26.843 -13.343,45.18 -6.091,16.753 -12.381,14.397 -17.286,23.911 6,-9.295 11.27,-6.831 18.158,-21.384 4.75,24.441 -1.98,39.14 5.477,51.048 -6.8,-1.127 -24.501,-8.387 -26.255,-24.997 0.54,0.46 6.15,4.352 6.284,4.437 C 31.07,105.198 25.953,97.292 25.953,82.19 c 1.233,2.52 3.216,5.03 3.216,5.03 0.018,-0.088 -0.264,-0.461 -0.304,-0.537 -4.259,-8.017 -4.749,-19.923 -3.287,-25.177 1.336,2.372 2.909,5.096 4.982,6.932 -8.201,-12.494 -5.386,-25.259 0.048,-31.57 0.206,2.59 0.475,6.017 2.29,8.082 -2.109,-3.291 -3.982,-20.742 11.13,-31.998 -0.505,1.474 -1.096,3.403 -0.961,4.984 C 46.744,8.83 53.23,5.248 60.722,2.7 59.902,4.295 57.746,8.565 60.314,9.693 56.953,8.215 65.631,-3.999 76.033,-3.999 c -0.544,0.896 -0.917,1.88 -1.123,2.906 2.922,-6.477 12.93,-9.608 18.715,-5.051 -2.37,1.478 -4.53,3.266 -6.61,5.114 12.854,-8.234 21.979,-8.207 34.624,-3.891 7.605,2.596 17.111,5.483 24.73,19.78 -2.179,-10.92 -16.203,-19.282 -23.674,-21.801 -20.28,-6.846 -28.51,0.08 -28.51,0.08 C 87.976,-13.878 79.768,-9.397 76.487,-4.703 61.433,-5.065 62.594,1.579 60.955,1.884 46.365,4.61 46.295,10.269 43.935,11.56 32.974,17.563 30.2,25.228 30.533,35.751 c -12.438,12.35 -5.392,23.111 -5.887,24.23 -5.069,11.436 0.464,18.845 0.238,20.38 -3.08,20.905 8.766,27.064 8.769,28.864 0.045,22.594 23.879,26.713 28.836,26.308 -7.255,-14.38 1.09,-23.773 -6.729,-52.88 4.149,-9.398 6.389,-21.289 7.314,-30.863 1.03,-10.639 14.588,-14.209 18.938,-13.887 4.391,-3.255 8.96,-3.179 14.78,-2.578 3.275,10.267 4.844,23.685 5.561,26.507 4.188,16.459 20.678,19.766 37.427,15.424 1.043,-0.269 5.199,6.586 4.059,17.601 -0.146,1.409 -5.579,32.572 -9.609,43.643 9.359,-4.462 26.288,-9.968 29.666,-24.11 6.988,-4.789 10.256,-7.462 8.856,-16.221 -0.002,0 7.156,-6.063 6.723,-15.365 z"
               fill="#bf8a00"
               stroke-width="none"
               opacity="1"
               stroke="none" />
          </g>
          <g
             id="svga-group-glasses-single-move">
            <g
               id="svga-group-glasses-single">
              <path
                 id="SvgjsPath2896"
                 d="M 100,18.13 Z"
                 fill="#26120b"
                 stroke-width="none"
                 opacity="1" />
            </g>
          </g>
        </g>
      </g>
    </g>
  </g>
</svg>
